<svg width="272" height="242" viewBox="0 0 272 242" fill="none" xmlns="http://www.w3.org/2000/svg">
<path d="M185.042 46.1475L187.646 46.946L189.393 42.8994L193.343 43.5995L195.146 40.7842L196.571 41.6979L194.16 45.4622L190.416 44.7992L188.598 49.0093L184.68 47.8059L185.042 46.1475Z" fill="#50BFA5"/>
<path d="M18.1064 191.69L20.71 192.488L22.4576 188.442L26.4076 189.142L28.2108 186.327L29.6353 187.24L27.2247 191.003L23.4808 190.342L21.6627 194.552L17.7443 193.348L18.1064 191.69Z" fill="#50BFA5"/>
<path d="M201.082 239.597C201.082 239.597 214.973 192.516 216.087 182.13C217.201 171.745 209.435 174.963 209.435 174.963C209.435 174.963 215.97 155.174 211.244 150.477C206.519 145.781 202.257 154.535 202.257 154.535C202.257 154.535 200.827 130.512 195.789 130.502C186.405 130.486 186.591 156.702 186.591 156.702C186.591 156.702 184.195 146.438 179.172 149.252C171.595 153.495 182.46 174.064 182.46 174.064C182.46 174.064 172.805 174.072 169.414 178.939C163.327 187.675 201.082 239.597 201.082 239.597Z" fill="#50BFA5"/>
<path d="M196.541 233.367C196.541 233.367 236.585 226.67 245.295 219.574C254.005 212.478 245.384 209.278 245.384 209.278C245.384 209.278 265.5 198.966 265.268 191.954C265.036 184.941 255.041 188.507 255.041 188.507C255.041 188.507 271.991 169.178 267.978 165.509C260.503 158.671 240.909 178.763 240.909 178.763C240.909 178.763 246.727 169.208 240.598 167.696C231.357 165.416 224.536 188.977 224.536 188.977C224.536 188.977 226.269 179.673 219.897 180.911C208.465 183.136 196.541 233.367 196.541 233.367Z" fill="#50BFA5"/>
<path d="M219.9 180.913C226.288 179.758 224.539 188.979 224.539 188.979C224.539 188.979 231.36 165.418 240.601 167.698C246.729 169.21 240.911 178.765 240.911 178.765C240.911 178.765 260.507 158.673 267.98 165.511L196.677 233.38C197.945 226.895 209.19 182.848 219.9 180.913Z" fill="#3C8F7C"/>
<path d="M185.148 238.89C185.148 238.89 206.237 217.444 216.856 215.21C227.476 212.976 225.565 220.532 225.565 220.532C225.565 220.532 246.636 202.106 251.518 206.571C256.401 211.035 251.119 215.346 251.119 215.346C251.119 215.346 268.67 212.235 271.183 217.996C275.044 226.847 246.179 231.662 246.179 231.662C246.179 231.662 258.274 232.5 255.47 238.049C251.24 246.419 185.148 238.89 185.148 238.89Z" fill="#355389"/>
<path d="M271.183 217.996C268.67 212.237 251.119 215.346 251.119 215.346C251.119 215.346 256.401 211.035 251.518 206.571C246.636 202.106 226.219 218.027 226.219 218.027C226.219 218.027 231.033 208.827 220.412 211.059C209.791 213.294 185.144 238.89 185.144 238.89L271.183 217.996Z" fill="#466EB6"/>
<path d="M151.574 17.7041C158.672 18.8722 160.781 28.1893 154.879 32.3566C153.819 33.105 153.085 34.2304 152.773 35.4895L151.698 39.824C151.403 41.0181 150.238 41.7851 149.024 41.5845L146.335 41.1425C145.12 40.942 144.264 39.8444 144.366 38.6169C144.74 34.1431 145.2 32.52 143.746 30.5237C139.493 24.6868 144.474 16.5342 151.574 17.7041Z" fill="#F7CC7F"/>
<path d="M150.849 36.6448C151.311 32.8117 151.959 28.7651 152.18 27.6174C156.249 27.8421 154.702 23.5522 152.825 25.296C152.29 25.7937 152.037 26.4679 151.87 27.2051C150.518 27.0826 149.198 26.6981 147.993 26.076C148.058 25.1308 148.151 24.4139 147.887 23.8085C147.488 22.8948 146.331 22.646 145.859 23.5355C145.682 23.8698 145.651 24.2969 145.779 24.6516C146.052 25.4075 146.873 25.907 147.59 26.2989C147.376 29.3464 147.079 32.418 146.706 35.4414L147.09 35.4896C147.458 32.5146 147.751 29.4931 147.965 26.4939C149.161 27.0881 150.461 27.4596 151.792 27.5858C151.514 29.0529 150.899 32.9974 150.464 36.5965L150.849 36.6448ZM154.114 26.713C153.752 27.103 153.146 27.2738 152.262 27.233C152.414 26.5811 152.641 25.9962 153.09 25.5802C154.099 24.6405 154.719 26.0593 154.114 26.713ZM147.534 23.9645C147.757 24.4733 147.671 25.1252 147.621 25.8736C147.04 25.543 146.364 25.1289 146.147 24.5235C145.993 24.0982 146.165 23.4984 146.598 23.3869C146.644 23.3739 147.378 23.6079 147.534 23.9645Z" fill="#FAE0B2"/>
<path d="M152.805 35.3819C152.796 35.4172 152.783 35.4524 152.774 35.4896L151.698 39.824C151.403 41.0182 150.239 41.7851 149.024 41.5846L146.335 41.1426C145.121 40.942 144.264 39.8445 144.367 38.6169C144.532 36.6261 144.716 35.2017 144.74 34.0559L152.805 35.3819Z" fill="#96D9C9"/>
<path d="M156.837 14.4674L158.959 10.5935C159.165 10.2184 159.028 9.74851 158.653 9.54237C158.278 9.33623 157.808 9.47366 157.602 9.84879L155.479 13.7227C155.273 14.0978 155.41 14.5677 155.786 14.7738C156.163 14.9818 156.631 14.8407 156.837 14.4674Z" fill="#FAE0B2"/>
<path d="M161.475 23.8401L166.103 23.4353C166.529 23.3981 166.844 23.023 166.807 22.5958C166.77 22.1706 166.395 21.8549 165.968 21.892L161.342 22.2969C160.916 22.334 160.601 22.7091 160.638 23.1363C160.673 23.5615 161.048 23.8772 161.475 23.8401Z" fill="#FAE0B2"/>
<path d="M166.062 38.0246C166.363 37.7201 166.359 37.2298 166.055 36.9289C164.918 35.8054 163.667 34.784 162.337 33.8963C161.982 33.6586 161.501 33.7552 161.264 34.1099C161.026 34.4646 161.122 34.9456 161.477 35.1833C162.725 36.0171 163.899 36.9754 164.967 38.0302C165.271 38.331 165.761 38.331 166.062 38.0246Z" fill="#FAE0B2"/>
<path d="M145.404 14.2573C145.818 14.1477 146.064 13.7224 145.952 13.3102C145.428 11.3491 145.107 9.32669 144.998 7.29874C144.975 6.87161 144.609 6.5429 144.182 6.56705C143.755 6.58933 143.428 6.95518 143.451 7.38231C143.566 9.51611 143.904 11.6462 144.455 13.7113C144.567 14.1254 144.994 14.3668 145.404 14.2573Z" fill="#FAE0B2"/>
<path d="M140.639 20.2057C140.762 19.7953 140.531 19.3644 140.121 19.24L135.311 17.7896C134.901 17.667 134.47 17.8973 134.345 18.3077C134.223 18.7163 134.453 19.149 134.863 19.2716L139.673 20.722C140.082 20.8464 140.515 20.6161 140.639 20.2057Z" fill="#FAE0B2"/>
<path d="M132.737 33.0048C132.806 33.0048 132.876 32.9955 132.947 32.9751C134.613 32.5071 136.234 31.8571 137.764 31.0437C138.141 30.8432 138.284 30.3752 138.084 29.9963C137.883 29.6193 137.413 29.4745 137.036 29.6751C135.604 30.4365 134.087 31.0437 132.527 31.482C132.115 31.5971 131.875 32.0243 131.992 32.4366C132.089 32.782 132.399 33.0048 132.737 33.0048Z" fill="#FAE0B2"/>
<path d="M62.2807 67.2311L64.708 61.4927L70.8123 60.2392C71.5068 60.0962 71.7371 59.2178 71.2004 58.7535L66.4927 54.6716L67.1854 48.48C67.2652 47.7743 66.5001 47.2859 65.8928 47.6518L60.5574 50.8683L54.8821 48.2962C54.2358 48.0028 53.5338 48.5785 53.6935 49.2693L55.1031 55.3383L50.9023 59.9402C50.4232 60.4639 50.7537 61.3088 51.4613 61.3701L57.6696 61.905L60.7486 67.3221C61.0978 67.9368 62.004 67.8848 62.2807 67.2311Z" fill="#F7CC7F"/>
<path d="M23.6475 47.5404L24.6447 51.5573L31.2876 50.6659L33.4697 56.3598L38.5488 56.5065L38.4745 59.0767L31.6813 58.8817L29.6125 53.4868L22.7041 54.4135L21.2035 48.3668L23.6475 47.5404Z" fill="#F48C7F"/>
<path d="M82.8201 240.125H199.566C204.025 240.125 207.641 236.375 207.641 231.751V226.772C207.641 222.146 204.025 218.399 199.566 218.399H82.8201C88.1611 224.453 88.2521 233.707 83.0355 239.874L82.8201 240.125Z" fill="#B75742"/>
<path d="M84.6213 220.887H149.375C153.833 220.887 157.449 224.637 157.449 229.263C157.449 233.887 153.835 237.636 149.375 237.636H84.6158C87.6428 232.498 87.6354 226.011 84.6213 220.887Z" fill="#FAE0B2"/>
<path d="M123.834 203.306C123.665 202.988 123.923 202.619 124.315 202.619H186.09C190.931 202.619 194.857 206.151 194.857 210.51C194.857 214.866 190.931 218.4 186.09 218.4H124.298C123.905 218.4 123.645 218.029 123.817 217.71C126.263 213.149 126.256 207.847 123.834 203.306Z" fill="#86B1F2"/>
<path d="M124.224 204.088H154.84C160.522 204.088 165.13 207.048 165.13 210.699C165.13 214.35 160.522 217.31 154.84 217.31H124.023C126.129 213.104 126.187 208.313 124.224 204.088Z" fill="#F7CC7F"/>
<path d="M132.131 207.223H136.118C136.976 207.223 137.671 207.51 137.671 207.865V207.923H132.131V207.223Z" fill="#B75742"/>
<path d="M128.73 208.835C128.73 207.943 129.771 207.223 131.055 207.223H136.171C135.196 207.223 134.407 207.77 134.407 208.446L134.431 225.734L131.604 223.511L128.722 225.734L128.73 208.835Z" fill="#F47458"/>
<path d="M135.192 202.051H171.136C174.323 202.051 176.908 198.985 176.908 195.202C176.908 191.419 174.325 188.353 171.136 188.353H135.192C137.938 192.151 138.046 197.72 135.448 201.663L135.192 202.051Z" fill="#FAE0B2"/>
<path d="M176.902 195.2C176.902 191.417 174.258 188.351 170.995 188.351H134.507C134.336 188.351 134.198 188.189 134.2 187.992C134.202 187.797 134.338 187.641 134.507 187.641H192.39C195.991 187.641 198.911 191.025 198.911 195.202C198.911 199.376 195.991 202.762 192.39 202.762H134.507C134.339 202.762 134.202 202.604 134.2 202.411C134.198 202.214 134.336 202.053 134.507 202.053H170.995C174.258 202.051 176.902 198.983 176.902 195.2Z" fill="#466EB6"/>
<path d="M141.467 191.716H145.454C146.312 191.716 147.006 191.998 147.006 192.347V192.403H141.467V191.716Z" fill="#184655"/>
<path d="M138.066 193.298C138.066 192.425 139.108 191.716 140.392 191.716H145.508C144.533 191.716 143.744 192.253 143.744 192.916L143.768 209.869L140.941 207.689L138.059 209.869L138.066 193.298Z" fill="#3C8F7C"/>
<path d="M77.923 86.9999L72.6173 85.6034L76.2144 133.572L82.5806 133.784L79.3696 88.7419C79.3084 87.9118 78.7271 87.2116 77.923 86.9999Z" fill="#184655"/>
<path d="M75.7372 134.939C75.856 134.95 75.9767 134.948 76.1012 134.933C77.1541 134.809 77.936 133.762 77.8431 132.592L74.3109 87.4865C74.2199 86.3184 73.2914 85.4716 72.2365 85.596C71.1817 85.7204 70.4017 86.7678 70.4946 87.9378L74.0268 133.043C74.1085 134.075 74.8421 134.857 75.7372 134.939Z" fill="#F7CC7F"/>
<path d="M124.573 137.342C124.571 137.375 124.57 137.409 124.566 137.442C124.399 139.277 122.978 140.65 121.39 140.508L76.5784 136.497C74.9906 136.356 73.8392 134.751 74.0045 132.917C74.012 132.839 74.0212 132.762 74.0324 132.686L124.573 137.342Z" fill="#F7CC7F"/>
<path d="M93.3683 185.79C96.3025 187.417 105.272 184.564 105.272 184.306C105.4 186.758 115.315 210.751 115.315 210.751L115.308 218.133C115.308 218.133 94.8781 219.106 95.1715 217.301C95.4649 215.496 96.5643 216.67 100.639 213.26C101.001 212.957 106.723 211.63 105.174 208.242C102.056 201.421 95.4334 190.048 93.3683 185.79Z" fill="#F7A491"/>
<path d="M115.978 218.397L93.6153 218.403C92.8075 218.321 92.6199 217.663 92.9041 217.264C93.4909 216.441 97.7771 214.504 100.657 213.217C105.675 213.804 114.497 211.875 115.304 210.729C117.431 213.576 116.43 218.304 115.978 218.397Z" fill="#3C8F7C"/>
<path d="M120.885 168.563C121.188 167.655 101.631 159.356 100.756 160.305C99.2072 161.982 111.338 193.467 111.338 193.467L97.4021 197.725C97.4021 197.725 82.9149 161.351 83.5185 154.697C84.1239 148.043 91.3814 140.482 107.107 145.322C122.833 150.162 120.885 168.563 120.885 168.563Z" fill="#355389"/>
<path d="M80.3925 189.928C83.6944 189.326 87.9732 189.155 91.3976 189.096C90.9947 192.145 89.0336 207.785 89.392 208.746C90.8442 212.638 94.0645 214.46 94.0645 214.46C94.0645 214.46 78.879 228.161 77.9616 226.579C77.0442 224.997 78.6394 225.209 79.6311 219.988C79.7184 219.524 81.9153 212.239 82.0509 208.307C82.3109 200.814 80.5058 194.091 80.3925 189.928Z" fill="#F7A491"/>
<path d="M85.2658 138.765C87.3847 137.634 92.8836 137.595 98.9322 137.986C110.723 138.75 122.359 141.071 133.574 144.785L141.079 147.272L141.055 139.578C141.055 139.578 164.93 135.583 165.76 141.5C167.011 150.41 165.459 168.502 157.503 172.54C132.794 185.082 98.1689 152.559 98.0445 156.814C97.8755 162.528 93.0582 183.794 91.8269 193.103C88.4006 193.163 82.5154 193.161 79.9638 192.574C79.4679 174.335 79.2339 141.983 85.2658 138.765Z" fill="#466EB6"/>
<path d="M94.5293 214.783L77.4589 228.42C76.7829 228.867 76.2202 228.479 76.1886 227.991C76.1217 226.982 78.2091 222.767 79.6224 219.948C83.8751 217.221 89.4854 210.109 89.3851 208.712C91.1809 210.229 94.8171 214.425 94.5293 214.783Z" fill="#3C8F7C"/>
<path d="M133.168 64.3897C133.742 59.1472 134.345 53.886 138.691 50.0437C142.208 46.9349 146.678 46.4075 151.1 48.0714C163.626 52.7848 157.173 63.9088 173.144 75.1256C178.108 78.6114 183.577 80.9959 187.313 85.6888C192.543 92.2573 190.569 100.159 185.802 105.435C162.995 130.677 137.53 96.5881 135.703 88.4039C134.342 82.3163 132.798 67.7641 133.168 64.3897Z" fill="#13375B"/>
<path d="M137.799 93.8656C139.662 90.4318 141.582 87.7056 141.582 87.7056C143.515 84.2699 148.507 82.5336 148.507 82.5336C148.507 82.5336 150.177 82.567 152.095 82.6617C152.214 82.9793 152.335 83.2077 152.457 83.2987C153.178 83.8391 157.308 83.1408 159.975 84.9534C168.917 92.6176 166.443 129.769 165.739 141.502L138.508 141.76C138.508 141.76 141.942 116.513 136.408 110.026C132.555 105.508 135.034 98.9614 137.799 93.8656Z" fill="#50BFA5"/>
<path d="M150.073 69.9647C150.073 69.9647 151.57 80.6541 152.615 83.2522C153.661 85.8503 146.868 91.4049 141.215 93.0911C135.562 94.7774 142.942 87.3527 142.708 84.5763C142.474 81.8 141.447 68.6517 141.447 68.6517L150.073 69.9647Z" fill="#F7A491"/>
<path d="M141.731 72.4216C141.566 70.247 141.445 68.6517 141.445 68.6517L150.073 69.9647C150.073 69.9647 150.29 71.2201 150.532 72.9973C147.033 75.0253 143.889 74.3846 141.731 72.4216Z" fill="#F47458"/>
<path d="M147.367 50.4392C147.367 50.4392 150.767 51.2062 152.868 54.4097C154.968 57.6132 156.407 67.0472 149.493 71.4504C142.577 75.8536 137.199 69.6249 137.11 63.5503C137.021 57.4739 138.323 49.3677 147.367 50.4392Z" fill="#F7A491"/>
<path d="M135.526 61.6489C136.116 63.1141 137.286 64.0241 138.141 63.6805C138.995 63.337 139.208 61.8699 138.618 60.4046C138.027 58.9394 136.857 58.0294 136.003 58.3729C135.151 58.7165 134.937 60.1836 135.526 61.6489Z" fill="#F7A491"/>
<path d="M146.348 50.2406C146.348 50.2406 150.682 59.9643 154.491 60.8335C158.3 61.7026 158.244 66.5942 158.244 66.5942C158.244 66.5942 158.159 55.2956 154.589 52.7031C151.02 50.1106 146.348 50.2406 146.348 50.2406Z" fill="#13375B"/>
<path d="M152.977 62.854C152.476 64.4326 152.935 65.9888 154.002 66.3268C155.07 66.6648 156.342 65.6601 156.844 64.0816C157.345 62.503 156.886 60.9468 155.819 60.6088C154.751 60.2689 153.479 61.2736 152.977 62.854Z" fill="#F7A491"/>
<path d="M104.271 133.056C105.905 132.465 108.336 132.391 108.295 132.176C108.132 131.303 100.914 134.103 101.889 132.829C102.431 132.12 107.833 129.607 109.146 130.023C110.42 130.426 118.786 132.774 118.786 132.774L141.649 127.416C141.649 127.416 147.419 114.303 147.983 103.036C152.754 103.68 156.001 104.86 160.147 107.16C158.147 117.935 153.289 135.4 147.917 138.675C145.657 140.053 118.675 137.026 118.675 137.026C118.675 137.026 112.728 136.607 111.757 136.233C111.02 135.949 109.124 134.881 108.091 134.59C105.746 133.925 101.565 135.593 101.552 135.134C101.541 134.796 102.602 133.659 104.271 133.056Z" fill="#F7A491"/>
<path d="M147.842 90.9964C148.061 87.5292 149.374 84.1827 153.064 83.1038C155.35 82.4352 157.915 83.0741 159.742 84.5672C161.915 86.3425 162.522 89.1895 162.513 91.8841C162.491 98.0032 162.073 104.349 160.955 110.373C156.81 108.072 151.97 106.689 147.199 106.044C147.199 106.011 147.55 95.5779 147.842 90.9964Z" fill="#96D9C9"/>
<path d="M218.678 97.5389L254.122 90.9388C254.834 90.8069 255.304 90.1217 255.172 89.4104L250.731 65.5672C250.6 64.8559 249.914 64.386 249.203 64.5179L213.758 71.118C213.047 71.2499 212.577 71.9351 212.709 72.6464L217.149 96.4897C217.281 97.2009 217.967 97.6708 218.678 97.5389Z" fill="#F7CC7F"/>
<path d="M235.549 70.2806L246.339 68.2712C247.05 68.1393 247.52 67.4541 247.388 66.7428L246.712 63.114C246.581 62.4028 245.895 61.9329 245.184 62.0648L234.394 64.0741C233.683 64.206 233.213 64.8913 233.345 65.6025L234.021 69.2313C234.153 69.9426 234.838 70.4124 235.549 70.2806Z" fill="#F7CC7F"/>
<path d="M217.064 96.627C217.248 97.2789 217.899 97.6837 218.566 97.5593L254.241 90.9164C254.904 90.792 255.366 90.1866 255.307 89.5125L253.44 68.1392C253.409 67.7714 253.221 67.4335 252.928 67.2087C252.633 66.9859 252.258 66.8968 251.895 66.9636L212.261 74.3437C211.899 74.4106 211.582 74.6278 211.387 74.9417C211.192 75.2555 211.138 75.6344 211.238 75.9891L217.064 96.627Z" fill="#FAE0B2"/>
<path d="M54.4937 18.5288L60.5627 20.1872L61.8701 12.8312L59.8849 12.4784L58.9638 17.6597L55.0249 16.5826L54.4937 18.5288Z" fill="#50BFA5"/>
<path d="M247.86 119.542C246.341 119.417 244.007 120.088 242.961 120.797C242.804 120.944 241.6 121.423 240.35 123.496L240.633 123.691C241.953 122.309 242.841 121.999 243.897 121.683C245.639 121.236 247.396 121.57 247.541 121.648L247.86 119.542Z" fill="#355389"/>
<path d="M240.489 123.592C240.489 123.592 249.751 125.137 248.887 132.372C248.023 139.608 238.253 145.235 229.534 140.761C217.803 134.742 222.436 119.438 230.786 118.255C239.134 117.072 240.489 123.592 240.489 123.592Z" fill="#F47458"/>
<path d="M236.56 120.407C236.56 120.407 234.144 117.926 228.849 120.183C223.555 122.439 223.172 132.963 227.893 132.352C232.617 131.741 240.335 121.925 236.56 120.407Z" fill="#F48C7F"/>
<path d="M172.852 24.2932L210.941 37.8797C212.169 38.318 213.519 37.6773 213.957 36.4497L220.988 16.7404C221.426 15.5128 220.786 14.1627 219.558 13.7245L181.469 0.137959C180.241 -0.300316 178.891 0.340379 178.453 1.56792L171.422 21.2754C170.984 22.5048 171.623 23.8549 172.852 24.2932Z" fill="#86B1F2"/>
<path d="M198.097 19.227C196.697 23.1529 198.744 27.4725 202.671 28.8727C206.599 30.273 210.917 28.2265 212.317 24.2987C213.717 20.3728 211.671 16.0532 207.743 14.653C203.817 13.2527 199.498 15.3011 198.097 19.227Z" fill="white"/>
<path d="M204.126 18.1704C203.713 19.3274 204.317 20.6013 205.474 21.0155C206.631 21.4278 207.905 20.8242 208.319 19.6672C208.731 18.5103 208.128 17.2363 206.971 16.8222C205.812 16.4099 204.538 17.0134 204.126 18.1704Z" fill="#86B1F2"/>
<path d="M200.499 24.3786L207.199 26.7687L207.467 26.0165C207.955 24.6442 207.24 23.1362 205.869 22.6459L204.137 22.0275C202.764 21.5372 201.256 22.2541 200.766 23.6246L200.499 24.3786Z" fill="#86B1F2"/>
<path d="M197.158 15.1081C197.565 15.1081 197.929 14.8518 198.064 14.4692C198.242 13.9697 197.981 13.4181 197.481 13.2398L180.83 7.30083C180.726 7.26369 180.617 7.24512 180.507 7.24512C180.1 7.24512 179.736 7.5014 179.601 7.88396C179.423 8.38352 179.684 8.93507 180.184 9.11336L196.835 15.0524C196.941 15.0876 197.048 15.1081 197.158 15.1081Z" fill="white"/>
<path d="M192.664 19.2585C193.07 19.2585 193.434 19.0023 193.57 18.6197C193.748 18.1201 193.486 17.5686 192.987 17.3903L179.982 12.7513C179.878 12.7141 179.768 12.6956 179.658 12.6956C179.252 12.6956 178.888 12.9518 178.752 13.3344C178.667 13.5758 178.68 13.8377 178.789 14.0698C178.899 14.3019 179.094 14.4784 179.335 14.5638L192.341 19.2028C192.445 19.2381 192.554 19.2585 192.664 19.2585Z" fill="white"/>
<path d="M113.67 172.95H205.641C208.497 172.95 210.813 175.266 210.813 178.122V182.471C210.813 185.328 208.497 187.643 205.641 187.643H113.67L113.718 187.593C117.652 183.498 117.631 177.021 113.67 172.95Z" fill="#F47458"/>
<path d="M115.297 175.125H164.463C167.319 175.125 169.635 177.44 169.635 180.297C169.635 183.153 167.319 185.469 164.463 185.469H115.298C117.105 182.265 117.104 178.324 115.297 175.125Z" fill="#FAE0B2"/>
<path d="M38.3967 173.373L45.3682 155.883C45.7192 155.003 45.2902 154.006 44.4099 153.655L19.3243 143.656C18.4441 143.305 17.4468 143.734 17.0958 144.614L10.1243 162.104C9.77326 162.985 10.2022 163.982 11.0825 164.333L36.1682 174.332C37.0484 174.683 38.0457 174.254 38.3967 173.373Z" fill="#FAE0B2"/>
<path d="M14.7313 163.26L20.9953 147.543C21.0956 147.291 20.973 147.005 20.7204 146.904C20.4679 146.804 20.1818 146.927 20.0816 147.179L13.8176 162.896C13.7173 163.148 13.8399 163.434 14.0924 163.535C14.345 163.635 14.631 163.512 14.7313 163.26Z" fill="#466EB6"/>
<path d="M17.7163 161.189L22.8605 148.284C22.9608 148.032 22.8382 147.745 22.5856 147.645C22.3331 147.545 22.0471 147.667 21.9468 147.92L16.8027 160.825C16.7024 161.078 16.8249 161.364 17.0775 161.464C17.3301 161.566 17.6161 161.443 17.7163 161.189Z" fill="#466EB6"/>
<path d="M18.4584 164.745L24.7223 149.029C24.8226 148.776 24.7001 148.49 24.4475 148.39C24.1949 148.29 23.9089 148.412 23.8087 148.665L17.5447 164.381C17.4444 164.634 17.567 164.92 17.8195 165.02C18.0721 165.121 18.3581 164.998 18.4584 164.745Z" fill="#466EB6"/>
<path d="M21.7512 161.902L26.5871 149.771C26.6874 149.519 26.5648 149.233 26.3122 149.133C26.0597 149.032 25.7737 149.155 25.6734 149.407L20.8375 161.538C20.7372 161.791 20.8598 162.077 21.1124 162.177C21.3649 162.277 21.6509 162.155 21.7512 161.902Z" fill="#466EB6"/>
<path d="M14.9003 145.866L15.0266 145.55C15.073 145.433 15.1993 145.374 15.3088 145.419L17.6897 146.368C17.7992 146.41 17.8512 146.54 17.8048 146.657L17.6785 146.973C17.6321 147.09 17.5058 147.149 17.3962 147.105L15.0154 146.156C14.9058 146.113 14.8539 145.983 14.9003 145.866Z" fill="#355389"/>
<path d="M14.3598 147.22L14.486 146.904C14.5325 146.787 14.6587 146.728 14.7683 146.773L17.1491 147.721C17.2587 147.764 17.3107 147.894 17.2642 148.011L17.138 148.327C17.0915 148.444 16.9653 148.503 16.8557 148.459L14.4749 147.51C14.3653 147.467 14.3133 147.337 14.3598 147.22Z" fill="#355389"/>
<path d="M13.8212 148.574L13.9474 148.258C13.9938 148.141 14.1201 148.082 14.2297 148.126L16.6105 149.075C16.7201 149.118 16.7721 149.248 16.7257 149.365L16.5994 149.681C16.5529 149.798 16.4266 149.857 16.3171 149.813L13.9363 148.864C13.8249 148.821 13.7747 148.691 13.8212 148.574Z" fill="#355389"/>
<path d="M13.2812 149.928L13.4074 149.612C13.4538 149.495 13.5801 149.435 13.6897 149.48L16.0705 150.429C16.1801 150.474 16.2321 150.602 16.1856 150.719L16.0594 151.036C16.0129 151.153 15.8866 151.213 15.7771 151.168L13.3963 150.219C13.2867 150.175 13.2347 150.045 13.2812 149.928Z" fill="#355389"/>
<path d="M12.7425 151.281L12.8689 150.966C12.9153 150.849 13.0416 150.789 13.1511 150.834L15.5319 151.783C15.6415 151.827 15.6935 151.957 15.6471 152.073L15.5208 152.388C15.4744 152.505 15.3481 152.565 15.2385 152.52L12.8577 151.571C12.7463 151.528 12.6961 151.398 12.7425 151.281Z" fill="#355389"/>
<path d="M12.202 152.635L12.3283 152.32C12.3747 152.203 12.501 152.143 12.6106 152.188L14.9914 153.137C15.1009 153.181 15.153 153.309 15.1065 153.426L14.9802 153.742C14.9338 153.859 14.8075 153.918 14.6979 153.874L12.3172 152.925C12.2076 152.882 12.1556 152.752 12.202 152.635Z" fill="#355389"/>
<path d="M11.6635 153.989L11.7897 153.673C11.8362 153.556 11.9625 153.497 12.072 153.541L14.4528 154.49C14.5624 154.535 14.6144 154.663 14.568 154.78L14.4417 155.096C14.3953 155.213 14.269 155.272 14.1594 155.228L11.7786 154.279C11.6672 154.236 11.617 154.106 11.6635 153.989Z" fill="#355389"/>
<path d="M11.1229 155.343L11.2492 155.027C11.2957 154.91 11.4219 154.851 11.5315 154.895L13.9123 155.844C14.0218 155.889 14.0739 156.017 14.0274 156.134L13.9011 156.45C13.8547 156.567 13.7284 156.626 13.6189 156.582L11.2381 155.633C11.1285 155.59 11.0765 155.46 11.1229 155.343Z" fill="#355389"/>
<path d="M10.5849 156.697L10.7111 156.381C10.7576 156.264 10.8838 156.204 10.9934 156.249L13.3742 157.198C13.4838 157.243 13.5358 157.371 13.4893 157.488L13.3631 157.803C13.3166 157.92 13.1904 157.98 13.0808 157.935L10.7 156.986C10.5886 156.944 10.5384 156.814 10.5849 156.697Z" fill="#355389"/>
<path d="M10.0439 158.051L10.1701 157.735C10.2165 157.618 10.3428 157.558 10.4524 157.603L12.8332 158.552C12.9427 158.596 12.9948 158.725 12.9483 158.842L12.8221 159.157C12.7756 159.274 12.6493 159.334 12.5398 159.289L10.159 158.34C10.0494 158.298 9.99742 158.168 10.0439 158.051Z" fill="#355389"/>
<path d="M9.50572 159.404L9.63199 159.087C9.67842 158.97 9.8047 158.91 9.91427 158.955L12.2951 159.904C12.4047 159.949 12.4567 160.077 12.4102 160.194L12.2839 160.509C12.2375 160.626 12.1112 160.686 12.0016 160.641L9.62088 159.692C9.50946 159.651 9.45929 159.521 9.50572 159.404Z" fill="#355389"/>
<path d="M8.96523 160.758L9.0915 160.443C9.13793 160.326 9.26422 160.266 9.37378 160.311L11.7546 161.26C11.8642 161.302 11.9161 161.432 11.8697 161.549L11.7434 161.865C11.697 161.982 11.5707 162.042 11.4612 161.997L9.08035 161.048C8.97078 161.003 8.9188 160.875 8.96523 160.758Z" fill="#355389"/>
<path d="M2.38715 159.365L12.3431 173.542C12.3653 173.574 12.3821 173.609 12.3951 173.646L13.409 176.761C13.5279 177.123 13.1082 177.422 12.8036 177.193L10.1387 175.184C10.1053 175.16 10.0774 175.13 10.0532 175.097L0.0713568 160.883C-0.0567827 160.701 -0.00662422 160.45 0.180943 160.329L1.85605 159.26C2.03433 159.148 2.26644 159.195 2.38715 159.365Z" fill="#B75742"/>
<path d="M10.0665 175.112L10.0907 175.147L12.6628 177.086L13.3647 176.616L12.4028 173.663C11.6488 174.075 10.7462 174.499 10.0665 175.112Z" fill="#F7CC7F"/>
<path d="M103.256 5.88196C101.822 7.02593 99.33 10.7067 96.1488 13.2899C94.288 14.8016 92.8543 14.4172 90.4791 14.7032C79.2103 16.0644 82.2633 18.3691 80.9114 18.5956C81.2958 19.4796 84.8057 26.9414 85.4612 28.4513C86.0667 29.8422 87.1122 30.4662 88.6276 30.2563C90.9583 29.9351 93.3093 29.6936 95.6047 29.1978C101.486 27.922 104.758 24.9803 108.974 21.4073C110.092 20.4602 110.367 19.2772 109.787 17.9382C107.091 11.7021 103.548 6.4558 103.256 5.88196Z" fill="#466EB6"/>
<path d="M79.6911 27.5745C79.7413 30.0296 79.5538 30.5236 80.6086 30.1503C81.2437 29.9256 81.8584 29.6341 82.4582 29.3239C82.8817 29.1048 82.8984 28.8169 82.5548 28.4715C82.0553 27.9682 81.5408 27.4798 81.0394 26.9914C81.4052 26.0276 80.9856 24.9077 80.0849 24.3803C79.901 24.2726 80.0347 24.501 78.4655 20.889C83.6561 20.2483 87.3164 19.8193 93.6491 19.0412C95.3428 18.8332 96.847 18.1758 98.1563 17.0801C102.678 13.2953 107.2 9.51242 111.72 5.72394C112.333 5.20953 112.411 4.4574 111.925 3.87799C111.553 3.43414 111.059 3.41372 110.528 3.48057C109.083 3.66257 94.9157 5.42123 93.4764 5.59023C91.5859 5.81122 89.9219 6.5225 88.4604 7.74632C84.0182 11.4661 79.563 15.1747 75.1153 18.887C74.5043 19.3959 74.339 19.8639 74.5544 20.4303C74.7903 21.0524 75.3047 21.3496 76.0828 21.1824C76.6437 21.0617 76.8925 21.2307 77.0857 21.7507C77.9585 24.0999 78.5676 24.6199 78.3559 25.4779C78.1925 26.1409 78.9799 27.2867 79.6911 27.5745Z" fill="#86B1F2"/>
<path d="M56.1851 194.403L53.6037 196.866C47.4957 202.692 42.515 209.592 38.9122 217.223L38.5166 218.061C38.5166 218.061 31.7549 218.659 30.8115 212.545C36.7431 205.847 41.6272 198.697 45.6571 190.743L46.8791 187.885L56.1851 194.403Z" fill="#466EB6"/>
<path d="M46.885 187.877C46.5526 188.353 48.367 190.191 50.9353 191.983C53.5037 193.775 55.8678 194.864 56.2002 194.388C56.5326 193.913 54.7071 192.052 52.1369 190.26C49.5667 188.468 47.2156 187.4 46.885 187.877Z" fill="#86B1F2"/>
<path d="M46.8743 187.894L46.8817 187.885C46.8817 187.885 52.0277 192.242 54.1504 192.685L53.4948 193.577C52.7204 193.157 51.8402 192.613 50.9339 191.982C48.3952 190.212 46.5938 188.396 46.8743 187.894Z" fill="#355389"/>
<path d="M39.9969 200.543C39.9876 201.293 40.2755 204.536 45.6685 205.888C45.3138 206.37 44.9646 206.859 44.6229 207.351C41.2096 206.343 39.6738 204.589 38.9848 203.254C38.8752 203.043 38.7433 202.76 38.6561 202.541C39.111 201.88 39.5586 201.215 39.9969 200.543Z" fill="#B75742"/>
<path d="M45.1839 204.929L53.1211 204.645L51.2398 206.242L52.3634 208.281L44.8514 206.367L45.1839 204.929Z" fill="#B75742"/>
<path d="M44.4612 206.775L47.2803 211.687L45.2969 210.933L44.5336 212.493L43.2076 207.327L44.4612 206.775Z" fill="#B75742"/>
<path d="M43.3841 208.107C44.7769 208.205 45.9896 207.121 46.0918 205.685C46.1939 204.25 45.1465 203.005 43.7518 202.907C42.359 202.808 41.1463 203.893 41.0442 205.328C40.942 206.764 41.9894 208.008 43.3841 208.107Z" fill="#F47458"/>
<path d="M26.5365 96.6494L43.2504 81.7351C44.3368 80.7657 43.8836 78.7711 42.385 77.9225L29.0454 70.3697C28.1912 69.8868 27.2292 69.9314 26.6108 70.4829L9.89693 85.3973C8.81054 86.3667 9.26365 88.3612 10.7623 89.2099L24.1019 96.7627C24.9561 97.2474 25.9181 97.2028 26.5365 96.6494Z" fill="#9BC1F9"/>
<path d="M27.3298 84.7863L28.7226 73.328C28.7764 72.8897 28.4571 72.4199 28.0095 72.2806C27.5619 72.1413 27.1552 72.3846 27.1032 72.8229L25.82 83.3674L13.1453 86.4317C12.733 86.5319 12.5417 86.9776 12.72 87.4271C12.8983 87.8765 13.3793 88.1606 13.7934 88.0603L27.3298 84.7863Z" fill="white"/>
<path d="M245.587 32.2972L243.86 35.7162L239.956 35.5899L238.29 39.5566L234.175 38.1415L232.093 42.5447L228.143 41.709L225.449 45.6182L226.927 46.6377L228.944 43.7147L233.113 44.5986L235.113 40.3645L239.297 41.8037L241.135 37.4265L244.946 37.5491L246.549 34.3809L249.034 34.9863L249.459 33.2388L245.587 32.2972Z" fill="#F7CC7F"/>
<path d="M36.5613 119.726L33.0143 121.167L30.1544 118.507L26.2916 120.405L24.1188 116.634L19.6562 118.587L17.2271 115.361L12.6271 116.539L13.0728 118.279L16.5121 117.401L19.0749 120.805L23.3648 118.927L25.5748 122.762L29.8368 120.667L32.628 123.263L35.9169 121.928L37.3952 124.017L38.8623 122.979L36.5613 119.726Z" fill="#50BFA5"/>
</svg>
