<svg width="706" height="396" viewBox="0 0 706 396" fill="none" xmlns="http://www.w3.org/2000/svg">
<path d="M31.9648 395.059H673.402C673.402 395.059 673.402 361.868 673.402 305.345C673.402 248.812 652.012 206.756 586.73 153.496C540.95 116.15 502.755 90.9416 449.064 47.679C385.513 -3.52479 282.246 -9.01129 220.698 61.4425C159.151 131.896 153.654 171.655 101.034 217.498C58.684 254.383 31.9648 289.767 31.9648 395.059Z" fill="#BADAFF"/>
<path d="M175.788 333.197V319.287H162.35C161.5 315.332 159.948 311.65 157.818 308.366L167.322 298.862L157.493 289.032L147.989 298.537C144.705 296.407 141.012 294.855 137.068 294.005V280.556H123.158V293.994C119.203 294.844 115.521 296.397 112.237 298.526L102.733 289.022L92.9033 298.851L102.408 308.356C100.278 311.639 98.7255 315.332 97.8757 319.276H84.4375V333.187H97.8757C98.7255 337.142 100.278 340.824 102.408 344.107L92.9033 353.612L102.733 363.441L112.237 353.937C115.521 356.066 119.213 357.619 123.158 358.469V371.928H137.068V358.49C141.023 357.64 144.705 356.087 147.989 353.958L157.493 363.462L167.322 353.633L157.818 344.128C159.948 340.845 161.5 337.152 162.35 333.208H175.788V333.197ZM130.102 342.953C120.871 342.953 113.391 335.474 113.391 326.242C113.391 317.01 120.871 309.531 130.102 309.531C139.334 309.531 146.814 317.01 146.814 326.242C146.814 335.474 139.334 342.953 130.102 342.953Z" fill="#93BAE8"/>
<path d="M705.356 392.835H0V395.059H705.356V392.835Z" fill="#BADAFF"/>
<path d="M440.2 181.621C485.704 181.621 522.592 144.733 522.592 99.229C522.592 53.7252 485.704 16.8372 440.2 16.8372C394.696 16.8372 357.808 53.7252 357.808 99.229C357.808 144.733 394.696 181.621 440.2 181.621Z" fill="#3E63D6"/>
<path d="M484.879 30.0236L479.141 31.5552C479.141 31.5552 477.179 34.8597 478.417 35.8878C479.655 36.9158 481.931 38.9825 482.34 41.5631C482.749 44.1437 482.34 46.6195 482.34 46.6195C482.34 46.6195 484.617 47.0286 486.988 50.7527C489.358 54.4663 490.607 54.781 490.607 54.781L488.236 55.7147C488.236 55.7147 489.296 55.7567 488.236 57.6764C487.46 59.0716 487.69 60.4144 485.624 60.5193C483.557 60.6242 481.879 61.3166 482.655 62.8901C483.431 64.4637 489.579 66.1212 488.1 68.7018C486.631 71.2825 486.19 68.4396 482.288 71.0727C478.385 73.7058 482.309 76.6221 481.333 78.4579C480.347 80.2938 479.529 81.0386 481.05 81.3743C482.571 81.71 484.522 80.4511 484.711 82.0667C484.816 82.9164 484.711 81.133 486.264 80.3672C487.816 79.5909 490.932 79.0244 491.425 78.3006C491.918 77.5768 490.009 76.6746 490.806 74.587C491.603 72.4994 492.128 74.4086 493.104 74.3037C494.09 74.1988 493.418 71.9749 494.73 71.1776C496.051 70.3803 498.863 70.1181 501.569 73.7058C504.276 77.2935 504.591 77.8075 504.181 78.951C503.772 80.084 502.377 80.4197 502.576 81.5107C502.786 82.5912 503.426 83.2416 503.636 84.0179C503.846 84.7942 504.748 83.913 504.664 82.4443C504.591 80.9757 506.468 79.9161 506.521 79.5489C506.573 79.1923 509.206 83.3465 509.615 84.4795C510.025 85.6124 511.011 85.8432 511.084 84.5844C511.158 83.315 510.004 79.8112 510.727 79.0035C511.451 78.2062 512.763 77.325 512.28 74.7968C511.787 72.2686 509.699 70.8209 510.444 70.4118C511.189 70.0027 512.951 72.4259 514.242 74.2303C515.532 76.0347 517.053 78.1327 516.77 79.0035C516.487 79.8847 515.742 77.4509 514.829 77.2516C513.927 77.0417 511.787 77.3565 511.546 79.7273C511.315 82.0981 510.644 81.8673 512.112 83.7241C513.581 85.581 513.245 87.1545 515.06 87.2384C516.864 87.3119 516.969 86.4097 517.127 88.4763C517.284 90.5429 518.784 94.3929 517.127 94.4139C515.469 94.4349 515.763 91.6549 514.808 91.6549C513.854 91.6549 511.86 92.4522 510.906 90.6688C509.951 88.8854 506.857 88.1616 506.542 88.5288C506.227 88.8854 509.154 90.8576 508.608 91.4766C508.063 92.0955 507.087 91.4241 506.08 90.2387C505.073 89.0533 501.15 87.6056 501.15 86.0006C501.15 84.3955 501.895 84.8886 501.664 82.8744C501.433 80.8603 499.209 81.3533 498.412 80.6819C497.614 80.0105 497.331 79.3601 494.981 80.7029C492.632 82.0457 492.296 82.822 490.282 82.7695C488.267 82.7171 487.26 81.0281 485.991 81.6365C484.722 82.2345 485.939 83.4409 484.365 84.3955C482.791 85.3502 482.173 84.7312 481.858 85.6334C481.543 86.5356 482.12 88.9903 481.26 89.8715C480.41 90.7527 478.396 92.5361 476.455 94.6971C474.515 96.8687 473.308 96.5539 473.749 99.5542C474.189 102.544 475.994 104.076 474.777 106.604C473.56 109.132 471.735 108.691 472.972 111.02C474.21 113.339 475.375 111.901 475.448 114.199C475.522 116.496 476.12 116.423 477.567 117.682C479.015 118.951 478.081 120.294 480.074 121.322C482.068 122.35 487.764 121.584 488.362 121.196C488.96 120.808 489.033 119.182 491.74 119.748C494.446 120.315 491.582 122.36 492.464 123.105C493.345 123.85 495.768 122.507 495.978 124.626C496.188 126.745 494.509 127.28 494.509 128.602C494.509 129.924 495.443 131.676 495.674 133.428C495.904 135.18 494.383 139.596 493.062 141.149C491.74 142.701 489.673 143.205 488.54 144.684C486.757 147.002 487.848 148.66 487.323 151.65C486.809 154.639 486.085 154.073 484.281 155.783C482.477 157.482 482.781 156.916 481.333 159.654C479.886 162.392 473.738 163.116 474.105 165.696C474.462 168.277 478.858 165.487 486.39 162.906C489.894 161.71 494.079 159.864 497.635 158.238C513.004 143.268 522.561 122.371 522.561 99.2185C522.592 70.202 507.57 44.6892 484.879 30.0236Z" fill="#53BDA1"/>
<path d="M441.196 153.958C441.742 152.017 444.795 150.391 445.886 149.699C446.966 149.006 448.907 143.268 448.907 140.908C448.907 138.547 453.711 136.764 454.173 135.064C454.635 133.365 451.498 132.935 449.841 131.267C448.173 129.599 447.019 129.253 441.322 127.941C435.626 126.62 438.689 125.077 435.941 121.941C433.192 118.804 431.524 120.315 427.611 119.423C423.698 118.531 425.671 116.675 424.086 115.237C422.502 113.8 417.582 115.668 413.974 114.692C410.375 113.727 407.627 115.08 406.767 118.794C405.298 119.024 402.161 119.612 399.717 117.556C397.273 115.5 400.221 111.786 399.402 110.852C398.584 109.919 393.675 111.513 393.591 110.664C393.517 109.814 394.713 107.055 396.381 106.163C398.049 105.272 396.035 105.345 392.898 105.345C389.762 105.345 390.496 107.044 389.143 109.562C387.79 112.08 384.454 109.908 382.828 106.352C381.202 102.785 384.454 101.631 382.786 100.467C381.118 99.3025 382.125 99.5752 384.485 97.4037C386.845 95.2322 390.066 96.3232 389.405 94.5713C388.744 92.8299 392.468 93.9943 395.563 93.9628C399.644 93.9314 399.539 101.369 400.137 101.579C400.735 101.789 402.151 99.743 400.347 94.5818C398.542 89.4205 403.525 87.2804 404.448 85.8013C405.372 84.3221 403.651 83.5039 404.627 79.2447C405.613 74.9856 410.931 73.0764 410.743 70.9049C410.554 68.7333 415.107 67.6004 416.114 67.1912C417.121 66.7821 416.523 68.6914 414.823 70.7055C413.124 72.7197 414.698 71.6077 415.568 71.9959C416.449 72.384 419.544 68.3767 421.044 67.0863C422.544 65.796 421.946 65.5652 421.768 64.9463C421.59 64.3274 420.425 65.5128 419.576 65.303C418.726 65.0932 417.824 65.3554 417.047 64.705C416.271 64.0546 416.712 63.4357 417.698 62.6908C418.684 61.946 420.331 63.3832 420.509 62.3551C420.688 61.3271 417.026 61.0124 418.233 60.7501C419.45 60.4879 420.215 60.5403 421.747 59.764C423.268 58.9877 424.359 57.7708 424.999 58.138C425.65 58.4947 423.971 60.362 423.006 61.0858C422.051 61.8096 421.684 63.0265 422.156 63.2049C422.618 63.3832 424.401 63.1 424.863 63.3832C425.324 63.6665 427.034 64.0756 428.01 63.8238C428.996 63.5616 429.814 66.1737 430.328 65.6072C430.842 65.0407 430.223 62.6174 429.636 61.4739C429.038 60.341 427.16 60.341 426.688 59.5332C426.227 58.7359 427.433 57.8757 427.433 56.6693C427.433 55.4629 427.412 55.2741 426.269 54.0048C425.136 52.7354 423.195 54.802 423.195 54.802C423.195 54.802 423.216 54.3929 423.121 53.2285C423.027 52.064 421.904 52.4312 421.495 50.6478C421.086 48.8644 418.988 46.0215 418.013 45.9481C417.026 45.8747 416.796 47.3433 415.789 48.298C414.781 49.2526 414.11 49.0743 413.669 48.0147C413.229 46.9552 415.421 46.9027 414.855 45.7908C414.288 44.6788 413.197 45.4341 411.141 44.1647C409.075 42.8954 406.725 44.0913 405.928 44.2172C405.13 44.3431 405.718 45.4026 405.665 46.3887C405.613 47.3748 405.613 49.2526 405.98 51.2982C406.347 53.3439 404.281 54.0362 403.169 55.2531C402.057 56.47 403.095 56.7742 403.452 57.7603C403.808 58.7464 403.137 60.7082 402.088 60.6767C401.028 60.6557 400.284 59.0716 400.389 57.8652C400.493 56.6484 399.56 56.2078 398.972 55.6413C398.374 55.0748 397.42 55.6937 396.318 54.5817C395.206 53.4697 394.64 54.6866 393.297 54.865C391.954 55.0433 392.238 53.8789 391.849 52.6935C391.461 51.508 391.073 52.6935 390.349 51.7074C389.625 50.7213 393.192 48.277 395.511 46.4097C397.839 44.5529 399.801 44.469 400.829 41.9932C401.857 39.5175 402.812 40.7553 403.62 40.5455C404.585 40.2938 404.679 40.5246 406.127 38.7622C407.575 36.9998 410.082 35.143 411.729 35.122C413.386 35.101 413.281 37.2935 412.274 39.2028C411.267 41.112 407.186 40.7763 406.725 41.7624C406.263 42.7485 406.515 42.224 409.589 42.0457C412.662 41.8673 412.683 43.6717 414.75 44.6263C416.817 45.5809 417.614 41.6785 417.876 41.3743C418.138 41.0596 420.53 42.4863 421.338 41.8883C422.135 41.2904 422.366 38.1957 422.366 37.0103C422.366 35.8248 419.995 35.8458 418.883 33.9156C417.771 31.9749 415.065 31.828 414.907 29.5516C414.75 27.2751 416.533 26.0163 417.205 25.0617C417.876 24.107 419.995 24.0546 420.174 24.6001C420.352 25.1456 421.16 25.4813 423.656 24.9882C426.164 24.4952 427.171 25.4813 428.377 28.0829C429.594 30.695 429.027 31.7965 427.863 34.5135C426.699 37.2201 430.37 39.4965 431.713 41.4058C433.056 43.315 434.063 42.2345 436.413 42.3604C438.763 42.4863 439.308 46.0006 440.546 44.6788C441.784 43.357 440.955 38.4579 442.581 37.5558C444.207 36.6536 445.55 37.3774 445.991 35.9822C446.431 34.587 448.214 34.3247 451.624 33.1183C455.033 31.9014 454.928 30.8943 454.414 29.9187C453.9 28.9326 452.505 27.8521 451.729 26.2786C450.952 24.705 453.586 27.1283 453.481 26.1736C453.376 25.219 449.683 23.9497 448.781 22.481C447.826 20.9284 445.833 21.3166 443.672 19.3024C442.728 18.4212 440.273 17.5505 437.818 16.8581C397.892 17.9911 365.088 47.5217 358.878 85.9691C360.168 87.165 362.34 89.368 363.735 91.8018C365.823 95.442 366.914 100.278 367.449 101.789C367.994 103.299 369.809 107.013 371.246 108.177C372.683 109.342 372.295 108.104 371.477 105.66C370.659 103.215 369.19 101.012 368.456 98.5367C367.721 96.0609 367.952 96.4805 368.844 96.9841C369.736 97.4876 369.924 99.7326 370.858 102.869C371.792 106.006 374.225 106.163 375.663 108.524C377.1 110.884 375.977 110.842 377.519 111.618C379.072 112.395 384.684 112.814 387.276 113.36C389.867 113.905 393.664 114.87 395.678 117.189C397.693 119.518 400.514 121.993 402.613 121.406C404.7 120.829 404.669 119.549 406.253 121.595C407.837 123.651 404.899 130.228 404.858 132.945C404.816 135.652 407.218 135.39 410.05 138.872C412.872 142.355 414.037 143.173 416.942 143.834C419.848 144.495 421.904 147.632 422.439 150.842C422.985 154.052 425.65 164.28 429.489 169.893C433.318 175.505 438.71 177.603 439.633 177.488C440.567 177.372 437.346 174.781 437.619 173.69C437.892 172.61 434.944 168.35 434.829 167.186C434.713 166.022 435.951 163.042 437.693 161.49C439.455 160 440.651 155.888 441.196 153.958Z" fill="#53BDA1"/>
<path d="M335.253 158.647C335.253 169.106 339.775 178.348 346.719 184.128C353.664 178.348 358.185 169.106 358.185 158.647C358.185 148.188 353.664 138.946 346.719 133.166C339.775 138.935 335.253 148.188 335.253 158.647Z" fill="#53BDA1"/>
<path d="M317.021 193.926C324.417 201.322 334.152 204.658 343.142 203.84C343.961 194.839 340.625 185.104 333.229 177.718C325.833 170.323 316.098 166.987 307.108 167.805C306.29 176.795 309.626 186.53 317.021 193.926Z" fill="#53BDA1"/>
<path d="M376.396 201.123C369.001 208.518 359.266 211.854 350.275 211.036C349.457 202.035 352.793 192.3 360.189 184.915C367.584 177.519 377.32 174.183 386.31 175.001C387.139 184.002 383.792 193.737 376.396 201.123Z" fill="#53BDA1"/>
<path d="M317.021 230.213C324.417 237.608 334.152 240.944 343.142 240.126C343.961 231.125 340.625 221.39 333.229 214.005C325.833 206.609 316.098 203.273 307.108 204.091C306.29 213.082 309.626 222.817 317.021 230.213Z" fill="#53BDA1"/>
<path d="M376.396 237.409C369.001 244.805 359.266 248.141 350.275 247.322C349.457 238.322 352.793 228.587 360.189 221.201C367.584 213.806 377.32 210.47 386.31 211.288C387.139 220.278 383.792 230.013 376.396 237.409Z" fill="#53BDA1"/>
<path d="M317.021 266.489C324.417 273.884 334.152 277.22 343.142 276.402C343.961 267.401 340.625 257.666 333.229 250.281C325.833 242.896 316.098 239.549 307.108 240.367C306.29 249.358 309.626 259.103 317.021 266.489Z" fill="#53BDA1"/>
<path d="M376.396 273.695C369.001 281.091 359.266 284.427 350.275 283.609C349.457 274.608 352.793 264.873 360.189 257.488C367.584 250.092 377.32 246.756 386.31 247.574C387.139 256.565 383.792 266.3 376.396 273.695Z" fill="#53BDA1"/>
<path d="M317.021 302.775C324.417 310.171 334.152 313.507 343.142 312.688C343.961 303.688 340.625 293.952 333.229 286.567C325.833 279.182 316.098 275.835 307.108 276.654C306.29 285.644 309.626 295.379 317.021 302.775Z" fill="#53BDA1"/>
<path d="M376.396 309.982C369.001 317.378 359.266 320.713 350.275 319.895C349.457 310.894 352.793 301.159 360.189 293.774C367.584 286.378 377.32 283.042 386.31 283.861C387.139 292.851 383.792 302.586 376.396 309.982Z" fill="#53BDA1"/>
<path d="M346.708 381.61C346.121 381.61 345.649 381.138 345.649 380.551V160.074H347.768V380.551C347.768 381.138 347.296 381.61 346.708 381.61Z" fill="#53BDA1"/>
<path d="M244.144 158.647C244.144 169.106 248.665 178.348 255.61 184.128C262.555 178.348 267.076 169.106 267.076 158.647C267.076 148.188 262.555 138.946 255.61 133.166C248.665 138.935 244.144 148.188 244.144 158.647Z" fill="#53BDA1"/>
<path d="M225.923 193.926C233.318 201.322 243.054 204.658 252.044 203.84C252.862 194.839 249.526 185.104 242.13 177.718C234.735 170.323 225 166.987 216.009 167.805C215.18 176.795 218.527 186.53 225.923 193.926Z" fill="#53BDA1"/>
<path d="M285.298 201.123C277.902 208.518 268.167 211.854 259.177 211.036C258.358 202.035 261.694 192.3 269.09 184.915C276.486 177.53 286.221 174.183 295.211 175.001C296.03 184.002 292.694 193.737 285.298 201.123Z" fill="#53BDA1"/>
<path d="M225.923 230.213C233.318 237.608 243.054 240.944 252.044 240.126C252.862 231.125 249.526 221.39 242.13 214.005C234.735 206.609 225 203.273 216.009 204.091C215.18 213.082 218.527 222.817 225.923 230.213Z" fill="#53BDA1"/>
<path d="M285.298 237.409C277.902 244.805 268.167 248.141 259.177 247.322C258.358 238.322 261.694 228.587 269.09 221.201C276.486 213.816 286.221 210.47 295.211 211.288C296.03 220.278 292.694 230.013 285.298 237.409Z" fill="#53BDA1"/>
<path d="M225.923 266.488C233.318 273.884 243.054 277.22 252.044 276.402C252.862 267.401 249.526 257.666 242.13 250.281C234.735 242.885 225 239.549 216.009 240.367C215.18 249.358 218.527 259.103 225.923 266.488Z" fill="#53BDA1"/>
<path d="M285.298 273.695C277.902 281.091 268.167 284.427 259.177 283.609C258.358 274.608 261.694 264.873 269.09 257.488C276.486 250.102 286.221 246.756 295.211 247.574C296.03 256.565 292.694 266.3 285.298 273.695Z" fill="#53BDA1"/>
<path d="M225.923 302.775C233.318 310.171 243.054 313.507 252.044 312.688C252.862 303.688 249.526 293.952 242.13 286.567C234.735 279.171 225 275.835 216.009 276.654C215.18 285.644 218.527 295.379 225.923 302.775Z" fill="#53BDA1"/>
<path d="M285.298 309.982C277.902 317.378 268.167 320.714 259.177 319.895C258.358 310.894 261.694 301.159 269.09 293.774C276.486 286.389 286.221 283.042 295.211 283.861C296.03 292.851 292.694 302.586 285.298 309.982Z" fill="#53BDA1"/>
<path d="M255.61 381.61C255.022 381.61 254.55 381.138 254.55 380.551V160.074H256.669V380.551C256.669 381.138 256.197 381.61 255.61 381.61Z" fill="#53BDA1"/>
<path d="M208.403 234.44C199.15 234.44 191.922 238.227 186.74 245.812C181.558 253.396 178.956 263.845 178.956 277.178C178.956 304.883 189.488 318.731 210.564 318.731C216.931 318.731 223.1 317.85 229.079 316.077C235.048 314.304 241.059 312.174 247.102 309.678V342.555C235.09 347.873 221.495 350.527 206.336 350.527C184.61 350.527 167.952 344.223 156.36 331.624C144.768 319.014 138.977 300.803 138.977 276.968C138.977 262.062 141.788 248.969 147.401 237.682C153.013 226.394 161.091 217.708 171.623 211.634C182.156 205.56 194.555 202.528 208.801 202.528C224.359 202.528 239.234 205.906 253.407 212.673L241.49 243.294C236.171 240.797 230.852 238.699 225.534 236.989C220.215 235.29 214.508 234.44 208.403 234.44Z" fill="#3E63D6"/>
<path d="M374.855 304.841C374.855 313.769 372.589 321.7 368.057 328.623C363.525 335.547 356.99 340.929 348.461 344.768C339.922 348.608 329.914 350.527 318.427 350.527C308.838 350.527 300.803 349.856 294.299 348.513C287.795 347.17 281.039 344.821 274.01 341.474V306.814C281.427 310.622 289.137 313.591 297.152 315.731C305.156 317.86 312.51 318.93 319.214 318.93C324.994 318.93 329.221 317.934 331.917 315.93C334.614 313.926 335.956 311.356 335.956 308.198C335.956 306.226 335.411 304.506 334.33 303.027C333.25 301.548 331.508 300.058 329.106 298.547C326.714 297.037 320.326 293.952 309.95 289.295C300.562 285.025 293.522 280.892 288.833 276.884C284.134 272.877 280.661 268.282 278.395 263.1C276.129 257.918 274.996 251.781 274.996 244.689C274.996 231.429 279.822 221.086 289.473 213.669C299.124 206.252 312.384 202.539 329.253 202.539C344.149 202.539 359.35 205.99 374.844 212.882L362.927 242.916C349.468 236.748 337.845 233.664 328.067 233.664C323.011 233.664 319.339 234.556 317.042 236.318C314.745 238.091 313.591 240.294 313.591 242.916C313.591 245.738 315.049 248.267 317.976 250.501C320.892 252.736 328.823 256.806 341.757 262.712C354.168 268.293 362.78 274.283 367.606 280.682C372.442 287.071 374.855 295.127 374.855 304.841Z" fill="#3E63D6"/>
<path d="M438.332 296.176V348.566H399.434V204.595H446.599C485.728 204.595 505.293 218.778 505.293 247.134C505.293 263.813 497.152 276.706 480.871 285.833L522.822 348.555H478.699L448.172 296.166H438.332V296.176ZM438.332 266.929H445.623C459.208 266.929 466.006 260.918 466.006 248.907C466.006 238.993 459.344 234.042 446.011 234.042H438.332V266.929Z" fill="#3E63D6"/>
<path d="M595.238 348.618H112.311V395.059H595.238V348.618Z" fill="#2A4391"/>
<path d="M564.731 184.716H466.247V250.27H564.731V184.716Z" fill="#2A4391"/>
<path d="M561.7 187.579H469.269V247.427H561.7V187.579Z" fill="white"/>
<path d="M533.485 235.501C543.428 225.558 543.428 209.438 533.485 199.495C523.542 189.552 507.422 189.552 497.479 199.495C487.536 209.438 487.536 225.558 497.479 235.501C507.422 245.444 523.542 245.444 533.485 235.501Z" stroke="#94552D" stroke-width="0.4996" stroke-miterlimit="10"/>
<path d="M540.414 212.316C538.022 200.745 527.773 192.048 515.489 192.048V217.509L540.414 212.316Z" fill="#3E63D6"/>
<path d="M497.026 199.979L515.489 217.498V192.038C508.219 192.048 501.663 195.101 497.026 199.979Z" fill="#E85454"/>
<path d="M497.026 199.979C492.693 204.542 490.029 210.711 490.029 217.498C490.029 226.3 494.498 234.052 501.285 238.626L515.489 217.498L497.026 199.979Z" fill="#2A4391"/>
<path d="M539.921 224.653C540.582 222.387 540.949 219.984 540.949 217.498C540.949 215.725 540.771 213.984 540.414 212.316L515.489 217.498L539.921 224.653Z" fill="#53BDA1"/>
<path d="M515.489 217.498L501.285 238.626C505.344 241.353 510.233 242.958 515.489 242.958C527.06 242.958 536.826 235.227 539.921 224.653L515.489 217.498Z" fill="#FFD557"/>
<path d="M534.529 250.281H496.449V262.796H534.529V250.281Z" fill="#2A4391"/>
<path d="M528.774 163.321C538.914 153.181 538.914 136.742 528.774 126.603C518.635 116.463 502.196 116.463 492.056 126.603C481.917 136.742 481.917 153.181 492.056 163.321C502.196 173.46 518.635 173.46 528.774 163.321Z" fill="white"/>
<path d="M529.746 156.622L543.876 176.942L521.794 165.098L529.746 156.622Z" fill="white"/>
<path d="M513.684 161.322C513.684 162.172 512.226 162.864 510.422 162.864C508.617 162.864 507.159 162.172 507.159 161.322C507.159 160.472 508.617 159.78 510.422 159.78C512.226 159.78 513.684 160.472 513.684 161.322Z" fill="#15224A"/>
<path d="M521.794 138.421C521.794 131.403 515.426 125.864 508.146 127.28C503.708 128.141 500.142 131.718 499.281 136.145C498.568 139.785 499.607 143.184 501.694 145.681C503.352 147.663 504.516 150.003 505.397 152.426L505.806 153.548H515.069L515.531 152.279C516.391 149.887 517.577 147.611 519.203 145.649C520.808 143.687 521.794 141.17 521.794 138.421Z" fill="#FFD557"/>
<path d="M507.831 153.549V139.261C507.831 138.767 508.135 138.369 508.513 138.369C508.807 138.369 509.058 138.61 509.153 138.956C509.247 138.621 509.499 138.369 509.793 138.369C510.086 138.369 510.338 138.61 510.433 138.956C510.527 138.621 510.779 138.369 511.073 138.369C511.366 138.369 511.618 138.61 511.712 138.956C511.807 138.621 512.059 138.369 512.352 138.369C512.73 138.369 513.034 138.767 513.034 139.261V153.549" stroke="white" stroke-width="0.5941" stroke-miterlimit="10" stroke-linecap="round" stroke-linejoin="round"/>
<path d="M515.531 161.521H505.314C505.03 161.521 504.81 161.29 504.81 161.018V154.052C504.81 153.769 505.041 153.548 505.314 153.548H515.531C515.815 153.548 516.035 153.779 516.035 154.052V161.018C516.035 161.301 515.815 161.521 515.531 161.521Z" fill="#3E63D6"/>
<path d="M516.035 155.227H504.81V155.804H516.035V155.227Z" fill="#15224A"/>
<path d="M516.035 157.241H504.81V157.818H516.035V157.241Z" fill="#15224A"/>
<path d="M516.035 159.266H504.81V159.843H516.035V159.266Z" fill="#15224A"/>
<path d="M165.497 347.737L169.745 378.254C170.028 380.289 171.738 381.831 173.784 381.894L183.708 382.24C183.708 382.24 190.768 379.754 193.422 381.82C195.489 383.425 175.347 391.996 166.336 395.71C164.29 396.549 162.035 395.08 161.972 392.877L161.689 383.016L147.044 350.905L165.497 347.737Z" fill="#F27474"/>
<path d="M82.7799 351.43L70.1284 379.523C69.2892 381.401 69.9081 383.604 71.6076 384.758L79.8321 390.328C79.8321 390.328 87.1334 391.986 88.2874 395.143C89.1895 397.608 67.5792 394.136 57.9595 392.479C55.7775 392.101 54.655 389.667 55.7775 387.758L60.7919 379.261L65.4812 344.286L82.7799 351.43Z" fill="#F27474"/>
<path d="M135.746 178.138C143.656 199.906 157.598 286.693 157.598 286.693L167.175 350.79L141.988 355.993L130.753 288.98C130.753 288.98 108.481 243.189 93.9102 178.138H135.746Z" fill="#784524"/>
<path d="M138.599 250.868C122.171 235.489 108.523 216.785 100.582 204.899C114.419 255.411 130.753 288.991 130.753 288.991L141.988 356.003L167.175 350.8L157.598 286.704C155.395 272.982 148.733 260.362 138.599 250.868Z" fill="#4A2B16"/>
<path d="M82.4649 178.138C72.9396 194.346 77.8911 206.357 77.8911 206.357C75.6042 229.877 79.7689 283.567 79.7689 283.567L59.3755 346.835L83.3147 353.496C83.3147 353.496 98.295 320.818 103.498 292.935C108.701 265.051 119.549 178.138 119.549 178.138H82.4649Z" fill="#784524"/>
<path d="M113.905 221.81C117.062 198.017 119.538 178.149 119.538 178.149" stroke="#4A2B16" stroke-width="0.7936" stroke-miterlimit="10"/>
<path d="M123.986 179.827L121.846 195.772C121.5 198.374 119.8 200.588 117.377 201.605L116.496 201.972" stroke="#4A2B16" stroke-width="0.7936" stroke-miterlimit="10"/>
<path d="M95.8932 179.827L89.4521 283.472L70.9155 343.415" stroke="#4A2B16" stroke-width="0.7936" stroke-miterlimit="10"/>
<path d="M145.135 116.14L169.672 156.926L205.161 145.376L209.536 152.038C209.536 152.038 185.701 167.753 174.256 173.375C162.811 178.998 150.296 167.679 140.634 151.692C130.962 135.704 145.135 116.14 145.135 116.14Z" fill="#F27474"/>
<path d="M177.593 154.356L169.673 156.937L145.136 116.15C145.136 116.15 130.953 135.715 140.625 151.702C143.898 157.105 147.486 161.983 151.262 165.843C156.843 171.561 166.358 170.396 170.481 163.567C172.589 160.063 175.002 156.748 177.593 154.356Z" fill="#E85454"/>
<path d="M245.508 149.289C245.13 149.111 244.7 149.08 244.312 149.216L218.17 157.944L229.111 135.295L196.507 119.549L195.741 121.123L190.989 118.825C184.863 115.867 177.488 118.447 174.53 124.563L170.669 132.568C167.711 138.684 170.291 146.069 176.407 149.027L182.408 151.922C182.807 154.094 184.191 156.056 186.342 157.094L206.326 166.745C210.176 168.602 214.708 168.434 218.401 166.273L243.536 151.618C244.385 151.125 245.361 150.905 246.337 150.989L249.652 151.272L245.508 149.289ZM177.351 147.034C172.337 144.611 170.218 138.558 172.641 133.533L176.502 125.529C178.925 120.514 184.978 118.395 190.003 120.818L194.755 123.116L182.974 147.516C182.67 148.146 182.471 148.796 182.366 149.457L177.351 147.034Z" fill="#2A4391"/>
<path d="M122.035 104.359C122.035 104.359 134.057 107.485 145.135 116.14C145.135 116.14 143.184 124.259 144.275 130.973C145.366 137.687 145.838 143.771 140.687 151.262L137.613 170.774C137.613 170.774 141.883 180.551 134.078 180.551C126.273 180.551 90.27 180.551 84.8569 180.551C79.4439 180.551 78.6151 171.707 84.2275 168.067L81.7308 119.675C81.7308 119.675 93.9102 109.268 107.401 102.974L122.035 104.359Z" fill="#258A6F"/>
<path d="M122.035 104.359L107.412 102.985C104.632 104.285 101.915 105.754 99.334 107.275L108.807 116.517C111.02 118.678 114.545 118.741 116.832 116.654L120.619 113.192L125.161 116.14C126.777 117.189 128.948 116.192 129.19 114.272L130.081 107.296C125.35 105.219 122.035 104.359 122.035 104.359Z" fill="#9ECBFF"/>
<path d="M121.333 116.14L122.718 135.012C122.938 138.023 122.707 141.044 122.046 143.992L114.713 176.386" stroke="#1B6350" stroke-width="0.7936" stroke-miterlimit="10"/>
<path d="M61.4214 340.488L85.6753 348.073" stroke="#94552D" stroke-width="0.7936" stroke-miterlimit="10"/>
<path d="M141.075 350.538L166.399 345.586" stroke="#94552D" stroke-width="0.7936" stroke-miterlimit="10"/>
<path d="M183.708 382.24L174.561 381.925L172.767 387.254L161.846 388.031L161.983 392.867C162.046 395.08 164.301 396.549 166.347 395.699C175.368 391.986 195.51 383.425 193.433 381.81C190.768 379.754 183.708 382.24 183.708 382.24Z" fill="#3E63D6"/>
<path d="M79.8423 390.328L72.2577 385.188L67.9042 388.744L58.2425 383.583L55.7878 387.758C54.6653 389.667 55.7878 392.101 57.9698 392.479C67.579 394.136 89.1893 397.598 88.2976 395.143C87.1437 391.986 79.8423 390.328 79.8423 390.328Z" fill="#3E63D6"/>
<path d="M81.7411 119.685C87.6787 116.821 94.487 121.689 99.4804 130.511C104.474 139.334 115.95 156.108 115.95 156.108L163.01 137.246L170.91 127.606C172.011 126.263 173.753 125.633 175.452 125.948L180.414 126.871C181.589 127.092 182.313 128.288 181.946 129.431L179.659 136.669C179.082 138.505 177.571 139.9 175.693 140.331L167.301 142.282C167.301 142.282 141.232 163.137 131.707 170.858C122.182 178.579 108.292 183.562 96.9837 167.637C85.6645 151.734 67.5895 126.494 81.7411 119.685Z" fill="#F27474"/>
<path d="M101.358 71.1147C98.1484 64.8938 88.088 63.3517 84.3534 72.6672C80.6188 81.9827 87.2698 86.1579 87.2698 86.1579C87.2698 86.1579 84.6577 91.057 87.1229 94.267C84.3954 96.47 81.2168 97.5086 81.2168 97.5086C81.2168 97.5086 87.2173 102.292 94.9278 96.0819C103.404 89.2526 101.358 71.1147 101.358 71.1147Z" fill="#15224A"/>
<path d="M98.9242 90.6793C102.638 82.5492 101.348 71.1147 101.348 71.1147C100.645 69.7509 99.6166 68.6179 98.3997 67.7682C97.7178 68.1459 97.0464 68.5865 96.375 69.132C91.2557 73.3281 89.4723 86.7664 98.9242 90.6793Z" fill="#0C142B"/>
<path d="M96.9413 79.5385C99.2472 79.5385 101.116 77.3827 101.116 74.7234C101.116 72.0641 99.2472 69.9083 96.9413 69.9083C94.6354 69.9083 92.7661 72.0641 92.7661 74.7234C92.7661 77.3827 94.6354 79.5385 96.9413 79.5385Z" fill="white"/>
<path d="M124.92 71.7336C129.683 71.0727 128.162 63.4986 121.794 63.1104C115.437 62.7223 111.377 65.219 111.377 65.219C111.377 65.219 104.768 63.2468 99.1242 67.8731C93.1027 72.8036 91.676 90.5009 107.695 90.5009L124.92 71.7336Z" fill="#15224A"/>
<path d="M127.029 87.186C127.113 83.1996 124.847 79.8532 124.847 79.8532L124.92 71.7336C124.92 71.7336 119.927 72.9085 115.552 71.1042C115.552 71.1042 115.751 77.3565 110.034 81.4687C109.142 80.1784 107.873 79.4545 106.667 79.7483C104.925 80.1784 104.013 82.5912 104.642 85.1194C105.125 87.0706 106.384 88.5078 107.737 88.8749L107.412 102.964L119.927 111.524L122.035 104.348L120.839 94.4349C120.839 94.4454 126.903 93.4383 127.029 87.186Z" fill="#F27474"/>
<path d="M120.839 94.4454C117.85 95.2112 115.143 94.5503 113.202 93.5327C112.342 93.0816 111.388 93.9838 111.786 94.8755C113.37 98.4003 116.549 103.352 121.909 103.299L120.839 94.4454Z" fill="#E85454"/>
<path d="M338.809 0H314.146V87.4168H338.809V0Z" fill="#53BDA1"/>
<path d="M308.062 17.8023H283.399V87.4273H308.062V17.8023Z" fill="#E85454"/>
<path d="M277.305 41.0176H252.642V87.4168H277.305V41.0176Z" fill="#3E63D6"/>
<path d="M246.557 52.1375H221.894V87.4273H246.557V52.1375Z" fill="#FFD557"/>
<path d="M215.883 87.721H344.821" stroke="#2A4391" stroke-width="1.0581" stroke-miterlimit="10"/>
<path d="M556.381 156.622C558.595 156.622 560.389 154.828 560.389 152.615C560.389 150.402 558.595 148.607 556.381 148.607C554.168 148.607 552.374 150.402 552.374 152.615C552.374 154.828 554.168 156.622 556.381 156.622Z" fill="#3E63D6"/>
<path d="M586.31 127.018C588.523 127.018 590.317 125.224 590.317 123.011C590.317 120.798 588.523 119.003 586.31 119.003C584.097 119.003 582.303 120.798 582.303 123.011C582.303 125.224 584.097 127.018 586.31 127.018Z" fill="#3E63D6"/>
<path d="M614.749 137.173C614.749 139.386 612.955 141.18 610.742 141.18C608.528 141.18 606.734 139.386 606.734 137.173C606.734 134.959 608.528 133.166 610.742 133.166C612.955 133.166 614.749 134.959 614.749 137.173Z" fill="#3E63D6"/>
<path d="M639.35 114.986C639.35 117.199 637.556 118.993 635.343 118.993C633.129 118.993 631.335 117.199 631.335 114.986C631.335 112.772 633.129 110.978 635.343 110.978C637.556 110.978 639.35 112.772 639.35 114.986Z" fill="#3E63D6"/>
<path d="M659.439 130.543C659.439 132.756 657.645 134.55 655.432 134.55C653.218 134.55 651.424 132.756 651.424 130.543C651.424 128.329 653.218 126.536 655.432 126.536C657.645 126.536 659.439 128.329 659.439 130.543Z" fill="#3E63D6"/>
<path d="M684.752 108.482C684.752 110.695 682.958 112.489 680.745 112.489C678.531 112.489 676.737 110.695 676.737 108.482C676.737 106.268 678.531 104.474 680.745 104.474C682.958 104.474 684.752 106.268 684.752 108.482Z" fill="#3E63D6"/>
<path d="M556.381 152.615L586.31 123.011L610.732 137.173L635.342 114.986L655.421 130.543L680.745 108.482" stroke="#3E63D6" stroke-width="1.275" stroke-miterlimit="10"/>
<path d="M195.859 71.9087C199.583 56.7628 190.324 41.4653 175.178 37.7408C160.032 34.0163 144.735 43.2752 141.01 58.4211C137.286 73.5671 146.545 88.8645 161.691 92.589C176.837 96.3135 192.134 87.0546 195.859 71.9087Z" fill="#FFD557"/>
<path d="M178.107 52.1375C172.589 49.8505 168.435 55.1167 168.435 55.1167C168.435 55.1167 164.281 49.8505 158.763 52.1375C152.752 54.6342 154.283 62.5964 156.874 67.0339C160.882 73.8946 168.435 78.7832 168.435 78.7832C168.435 78.7832 175.988 73.8841 179.995 67.0339C182.586 62.6069 184.118 54.6342 178.107 52.1375Z" fill="#D63A3A"/>
<path d="M147.831 78.0488L132.746 97.0365L156.045 87.4168L147.831 78.0488Z" fill="#FFD557"/>
<path d="M331.14 137.173C324.322 138.841 322.979 140.194 321.3 147.013C319.632 140.194 318.279 138.841 311.46 137.173C318.279 135.505 319.632 134.152 321.3 127.333C322.979 134.152 324.322 135.505 331.14 137.173Z" fill="white"/>
<path d="M302.271 157.776C295.452 159.444 294.099 160.797 292.431 167.616C290.763 160.797 289.41 159.455 282.591 157.776C289.41 156.108 290.763 154.755 292.431 147.936C294.099 154.755 295.452 156.108 302.271 157.776Z" fill="white"/>
<path d="M286.589 111.545C279.77 113.213 278.417 114.566 276.749 121.385C275.081 114.566 273.727 113.223 266.909 111.545C273.727 109.877 275.07 108.524 276.749 101.705C278.417 108.524 279.77 109.866 286.589 111.545Z" fill="white"/>
<path d="M204.595 186.426C197.776 188.093 196.423 189.447 194.755 196.266C193.087 189.447 191.734 188.093 184.915 186.426C191.734 184.758 193.087 183.404 194.755 176.585C196.434 183.404 197.787 184.758 204.595 186.426Z" fill="white"/>
<path d="M519.297 269.422H614.603V262.792H519.297V269.422Z" fill="#C2C2C2"/>
<path d="M563.462 269.426H558.259V395.059H563.462V269.426Z" fill="#C2C2C2"/>
<path d="M607.27 269.426H602.067V395.059H607.27V269.426Z" fill="#C2C2C2"/>
<path d="M602.066 269.426H563.461V286.515H602.066V269.426Z" fill="#C2C2C2"/>
<path d="M551.524 163.672C546.53 162.654 544.653 157.472 547.275 154.031C549.887 150.601 557.808 148.335 564.522 150.171C570.879 148.534 575.327 149.394 575.327 156.14C580.95 154.461 582.366 166.892 575.201 173.166L562.224 175.998L551.524 163.672Z" fill="#15224A"/>
<path d="M512.658 373.417L511.325 380.005C510.738 382.901 508.619 385.251 505.797 386.121L498.653 388.335C496.482 389.006 494.604 390.412 493.334 392.3L493.135 392.594C492.432 393.643 493.188 395.049 494.446 395.049H526.295C526.295 395.049 526.725 391.86 524.848 387.17C523.998 385.062 523.945 382.701 524.68 380.54L527.082 373.407H512.658V373.417Z" fill="#F27474"/>
<path d="M494.434 395.059H526.283C526.283 395.059 526.714 391.87 524.836 387.181C524.836 387.17 524.825 387.16 524.825 387.15H516.915C515.436 384.044 512.1 382.848 510.38 382.418C509.373 384.16 507.757 385.513 505.775 386.121L498.631 388.335C496.459 389.006 494.581 390.412 493.312 392.3L493.113 392.594C492.42 393.654 493.176 395.059 494.434 395.059Z" fill="#15224A"/>
<path d="M553.013 373.417L551.681 380.005C551.093 382.901 548.974 385.251 546.152 386.121L539.009 388.335C536.837 389.006 534.959 390.412 533.69 392.3L533.491 392.594C532.788 393.643 533.543 395.049 534.802 395.049H566.651C566.651 395.049 567.081 391.86 565.203 387.17C564.353 385.062 564.301 382.701 565.035 380.54L567.438 373.407H553.013V373.417Z" fill="#F27474"/>
<path d="M534.792 395.059H566.641C566.641 395.059 567.071 391.87 565.193 387.181C565.193 387.17 565.183 387.16 565.183 387.15H557.273C555.794 384.044 552.458 382.848 550.737 382.418C549.73 384.16 548.115 385.513 546.132 386.121L538.988 388.335C536.817 389.006 534.939 390.412 533.669 392.3L533.47 392.594C532.778 393.654 533.533 395.059 534.792 395.059Z" fill="#15224A"/>
<path d="M591.671 273.318C578.768 274.556 567.994 284.06 565.35 296.974L549.426 374.529H570.763C570.763 374.529 578.253 362.455 576.281 352.993C582.313 341.652 582.009 333.638 582.009 333.638C582.009 333.638 590.433 321.668 591.692 307.202V273.318H591.671Z" fill="#258A6F"/>
<path d="M564.794 299.659L559.497 325.466C568.592 313.486 584.925 310.328 591.398 309.541C591.503 308.765 591.597 307.989 591.671 307.202V300.729L564.794 299.659Z" fill="#1B6350"/>
<path d="M567.218 338.526C567.218 338.526 572.106 342.062 574.089 348.618" stroke="#1B6350" stroke-width="0.5235" stroke-miterlimit="10"/>
<path d="M578.422 395.059H575.201L587.685 311.262H595.175L578.422 395.059Z" fill="#15224A"/>
<path d="M575.201 173.166L569.662 173.124C570.134 172.641 570.543 172.054 570.826 171.361C571.791 169.022 571.067 166.515 569.221 165.749C567.375 164.994 565.098 166.263 564.133 168.602C563.85 169.284 563.724 169.987 563.724 170.648C562.014 169.179 560.514 166.903 560.514 163.378C560.514 163.378 555.982 164.679 551.513 163.661V169.882L549.541 175.243H551.828C551.828 175.243 551.566 189.08 564.259 184.296L567.438 190.485L584.401 185.02L575.201 173.166Z" fill="#F27474"/>
<path d="M572.39 188.901L570.25 179.407C569.966 178.159 568.319 177.928 567.658 179.03C565.392 182.817 561.438 185.492 558.857 185.282C560.336 185.387 562.109 185.114 564.26 184.306L567.438 190.496L572.39 188.901Z" fill="#E85454"/>
<path d="M550.139 204.773C547.328 198.049 550.832 190.328 557.766 188.072C564.868 185.775 574.582 183.572 585.775 183.572C586.373 183.572 586.961 183.583 587.538 183.604C602.77 184.107 616.397 193.181 623.352 206.735C630.79 221.254 640.021 244.941 640.021 273.171H569.777C569.777 273.171 568.214 267.548 573.208 260.058L550.139 204.773Z" fill="#15224A"/>
<path d="M570.564 218.851C570.564 218.851 574.739 223.95 571.97 237.189C575.096 247.962 571.928 256.953 571.928 256.953L561.028 230.842L570.564 218.851Z" fill="#0C142B"/>
<path d="M526.295 296.974L510.37 374.529H531.708C531.708 374.529 539.198 362.455 537.226 352.993C543.258 341.652 542.953 333.638 542.953 333.638C542.953 333.638 551.377 321.668 552.636 307.202H611.907C626.363 307.202 638.364 296.05 639.423 281.637L640.042 273.181H555.489C541.327 273.171 529.137 283.116 526.295 296.974Z" fill="#258A6F"/>
<path d="M547.412 307.296C547.412 307.296 544.821 303.509 543.332 299.659C541.853 295.809 545.923 292.347 551.241 295.316C556.55 298.285 572.243 305.324 579.901 303.593C579.901 303.593 569.946 310.727 547.412 307.296Z" fill="#1B6350"/>
<path d="M650.26 201.186H616.251C609.379 201.186 602.613 206.756 601.144 213.627L584.727 290.438C581.957 302.544 576.639 305.628 545.629 305.628C545.629 305.628 547.381 311.251 552.06 311.251C552.06 311.251 608.634 311.251 618.779 311.251C633.969 311.251 641.239 301.589 643.62 290.438L660.038 213.627C661.517 206.766 657.142 201.186 650.26 201.186Z" fill="#3E63D6"/>
<path d="M503.29 262.796H482.76L483.924 261.38C485.057 260.005 486.526 258.956 488.194 258.327L504.695 252.148L503.29 262.796Z" fill="#F27474"/>
<path d="M532.326 326.242C532.326 326.242 531.602 329.987 539.501 334.876" stroke="#1B6350" stroke-width="0.5235" stroke-miterlimit="10"/>
<path d="M547.255 395.059H544.034L556.518 311.262H564.008L547.255 395.059Z" fill="#3E63D6"/>
<path d="M605.372 395.059H608.603L589.353 311.262H581.852L605.372 395.059Z" fill="#3E63D6"/>
<path d="M636.539 395.059H639.77L620.52 311.262H613.019L636.539 395.059Z" fill="#2A4391"/>
<path d="M589.353 311.262H581.852L582.733 314.377L590.171 314.839L589.353 311.262Z" fill="#2A4391"/>
<path d="M564.008 311.262H556.518L556.297 312.741L563.62 313.192L564.008 311.262Z" fill="#2A4391"/>
<path d="M556.664 188.492C547.621 191.146 548.24 195.206 541.694 211.12C535.138 227.044 528.812 242.812 528.812 242.812L499.386 251.319C499.386 251.319 496.113 254.592 499.386 262.796H538.736C547.286 262.796 555.059 257.823 558.647 250.05L572.284 220.488L556.664 188.492Z" fill="#15224A"/>
<path d="M519.297 262.796H455.609V269.426H519.297V262.796Z" fill="white"/>
<path d="M468.146 269.426H462.943V395.059H468.146V269.426Z" fill="#C2C2C2"/>
<path d="M511.964 269.426H506.761V395.059H511.964V269.426Z" fill="#C2C2C2"/>
<path d="M506.75 269.426H468.146V286.515H506.75V269.426Z" fill="#C2C2C2"/>
<path d="M358.951 384.558V395.059H402.707C402.707 381.117 414.005 369.819 427.947 369.819C441.889 369.819 453.187 381.117 453.187 395.059H496.942V384.558H476.643C475.364 378.589 473.014 373.019 469.804 368.057L484.165 353.695L469.311 338.841L454.949 353.202C449.987 349.992 444.417 347.642 438.448 346.363V326.064H417.446V346.363C411.477 347.642 405.906 349.992 400.944 353.202L386.583 338.841L371.729 353.695L386.09 368.057C382.88 373.019 380.53 378.589 379.25 384.558H358.951Z" fill="white"/>
</svg>
