<svg width="19" height="23" viewBox="0 0 19 23" fill="none" xmlns="http://www.w3.org/2000/svg">
<path d="M9.03571 0C6.64016 0.00284237 4.34355 0.955729 2.64964 2.64964C0.955729 4.34355 0.00284237 6.64017 0 9.03571C0 16.7671 8.21428 22.6069 8.56403 22.8516C8.70235 22.9482 8.867 23 9.03571 23C9.20442 23 9.36907 22.9482 9.50739 22.8516C9.85714 22.6069 18.0714 16.7671 18.0714 9.03571C18.0686 6.64017 17.1157 4.34355 15.4218 2.64964C13.7279 0.955729 11.4313 0.0028421 9.03571 0ZM9.03631 5.7503C9.68617 5.7503 10.3214 5.943 10.8618 6.30404C11.4021 6.66508 11.8232 7.17824 12.0719 7.77862C12.3206 8.37901 12.3857 9.03966 12.2589 9.67702C12.1321 10.3144 11.8192 10.8998 11.3597 11.3594C10.9001 11.8189 10.3147 12.1318 9.67732 12.2586C9.03996 12.3854 8.37931 12.3203 7.77892 12.0716C7.17854 11.8229 6.66538 11.4018 6.30434 10.8615C5.9433 10.3211 5.7506 9.68587 5.7506 9.03601C5.75059 8.60452 5.83557 8.17726 6.00068 7.77861C6.1658 7.37996 6.40783 7.01774 6.71294 6.71263C7.01804 6.40752 7.38026 6.1655 7.77891 6.00038C8.17756 5.83526 8.60482 5.75029 9.03631 5.7503Z" fill="white"/>
</svg>
