<svg width="63" height="44" viewBox="0 0 63 44" fill="none" xmlns="http://www.w3.org/2000/svg">
<path d="M26.1596 4.79888C28.187 2.68647 31.0095 1.3763 34.1311 1.3763C38.2808 1.3763 41.9011 3.6902 43.8292 7.12523C45.5046 6.37667 47.3591 5.96023 49.3103 5.96023C56.7947 5.96023 62.8624 12.0809 62.8624 19.6306C62.8624 27.1812 56.7947 33.3018 49.3103 33.3018C48.4139 33.3023 47.5196 33.2132 46.6409 33.0358C44.9431 36.0643 41.7078 38.1105 37.9942 38.1105C36.4396 38.1105 34.9693 37.7514 33.6601 37.1129C31.939 41.1614 27.929 44 23.2555 44C18.3886 44 14.2408 40.9205 12.6486 36.6016C11.9529 36.7494 11.232 36.8264 10.4923 36.8264C4.69769 36.8264 0 32.0804 0 26.2249C0 22.3009 2.11064 18.8748 5.24659 17.0418C4.60098 15.5562 4.24186 13.9166 4.24186 12.1927C4.24186 5.45878 9.70876 0 16.4517 0C20.4106 0 23.9289 1.88229 26.1596 4.79888Z" fill="#00A1E0"/>
<path d="M9.10502 22.8172C9.06563 22.9202 9.11937 22.9417 9.13189 22.9596C9.25006 23.0455 9.37012 23.1074 9.491 23.1763C10.1322 23.5165 10.7376 23.6159 11.3706 23.6159C12.6601 23.6159 13.4607 22.93 13.4607 21.8258V21.8044C13.4607 20.7835 12.5572 20.4128 11.7091 20.145L11.599 20.1092C10.9596 19.9014 10.408 19.7224 10.408 19.3015V19.2792C10.408 18.9192 10.7304 18.6541 11.2301 18.6541C11.7853 18.6541 12.4443 18.8386 12.8688 19.0732C12.8688 19.0732 12.9932 19.1538 13.0389 19.0329C13.064 18.9684 13.2789 18.3899 13.3013 18.3272C13.3255 18.2592 13.2825 18.209 13.2387 18.1821C12.7542 17.8875 12.0843 17.686 11.3913 17.686L11.2624 17.6869C10.0821 17.6869 9.25831 18.3997 9.25831 19.4215V19.443C9.25831 20.5202 10.1672 20.8694 11.0188 21.113L11.1558 21.1551C11.7764 21.3458 12.311 21.5097 12.311 21.9467V21.9682C12.311 22.3676 11.9636 22.6649 11.403 22.6649C11.1854 22.6649 10.4914 22.6604 9.74189 22.1866C9.6514 22.1338 9.59861 22.0953 9.52876 22.0532C9.49207 22.03 9.39983 21.9896 9.35955 22.1114L9.10502 22.8172ZM27.9825 22.8172C27.9431 22.9202 27.9969 22.9417 28.0094 22.9596C28.1275 23.0455 28.2476 23.1074 28.3684 23.1763C29.0096 23.5165 29.615 23.6159 30.2481 23.6159C31.5375 23.6159 32.3381 22.93 32.3381 21.8258V21.8044C32.3381 20.7835 31.4346 20.4128 30.5865 20.145L30.4764 20.1092C29.837 19.9014 29.2854 19.7224 29.2854 19.3015V19.2792C29.2854 18.9192 29.6077 18.6541 30.1074 18.6541C30.6626 18.6541 31.3217 18.8386 31.7462 19.0732C31.7462 19.0732 31.8707 19.1538 31.9163 19.0329C31.9413 18.9684 32.1563 18.3899 32.1787 18.3272C32.2029 18.2592 32.1599 18.209 32.116 18.1821C31.6315 17.8875 30.9617 17.686 30.2686 17.686L30.1397 17.6869C28.9594 17.6869 28.1356 18.3997 28.1356 19.4215V19.443C28.1356 20.5202 29.0445 20.8694 29.8961 21.113L30.0331 21.1551C30.6537 21.3458 31.1892 21.5097 31.1892 21.9467V21.9682C31.1892 22.3676 30.8409 22.6649 30.2803 22.6649C30.0628 22.6649 29.3687 22.6604 28.6192 22.1866C28.5288 22.1338 28.4751 22.0971 28.4071 22.0532C28.3837 22.038 28.2745 21.9959 28.2368 22.1114L27.9825 22.8172ZM40.8697 20.6544C40.8697 21.2786 40.7533 21.7701 40.524 22.1176C40.2974 22.4615 39.9545 22.6289 39.4764 22.6289C38.9973 22.6289 38.6562 22.4624 38.4331 22.1176C38.2074 21.7711 38.0929 21.2786 38.0929 20.6544C38.0929 20.0312 38.2074 19.5404 38.4331 19.1966C38.6562 18.8563 38.9973 18.6906 39.4764 18.6906C39.9546 18.6906 40.2975 18.8563 40.525 19.1966C40.7533 19.5404 40.8697 20.0311 40.8697 20.6544ZM41.9461 19.4975C41.8404 19.1401 41.6756 18.8249 41.4563 18.5626C41.2369 18.2993 40.9593 18.088 40.6297 17.934C40.301 17.7809 39.9125 17.703 39.4764 17.703C39.0394 17.703 38.6507 17.7809 38.3221 17.934C37.9925 18.088 37.715 18.2994 37.4947 18.5626C37.2762 18.8259 37.1114 19.1411 37.0049 19.4975C36.9001 19.8529 36.8472 20.2416 36.8472 20.6544C36.8472 21.0673 36.9001 21.4568 37.0049 21.8114C37.1114 22.1678 37.2753 22.483 37.4956 22.7462C37.715 23.0095 37.9935 23.2199 38.3222 23.3695C38.6516 23.519 39.0394 23.5951 39.4765 23.5951C39.9125 23.5951 40.3003 23.519 40.6297 23.3695C40.9584 23.2199 41.2369 23.0095 41.4563 22.7462C41.6757 22.4838 41.8404 22.1686 41.9461 21.8114C42.0519 21.4559 42.1047 21.0663 42.1047 20.6544C42.1047 20.2425 42.0517 19.8529 41.9461 19.4975ZM50.785 22.4623C50.7492 22.3575 50.648 22.3969 50.648 22.3969C50.4913 22.4569 50.3247 22.5124 50.1475 22.5402C49.9674 22.5678 49.7695 22.5823 49.5573 22.5823C49.0362 22.5823 48.6225 22.4273 48.3261 22.1211C48.0288 21.8148 47.8622 21.3197 47.864 20.6498C47.8658 20.04 48.0126 19.5815 48.2768 19.2323C48.5392 18.8849 48.9386 18.7066 49.4714 18.7066C49.9156 18.7066 50.2541 18.7577 50.6086 18.8696C50.6086 18.8696 50.6937 18.9063 50.7339 18.7953C50.8279 18.5338 50.8978 18.3466 50.9981 18.0592C51.0268 17.9777 50.9569 17.9428 50.9318 17.9329C50.7921 17.8783 50.4626 17.7897 50.2137 17.752C49.9808 17.7162 49.7086 17.6974 49.4059 17.6974C48.9536 17.6974 48.5507 17.7744 48.206 17.9285C47.8621 18.0816 47.5702 18.2929 47.3392 18.5562C47.1082 18.8195 46.9327 19.1346 46.8154 19.4911C46.699 19.8465 46.6399 20.237 46.6399 20.6498C46.6399 21.5426 46.8808 22.2643 47.3563 22.7927C47.8326 23.3228 48.5482 23.5923 49.4813 23.5923C50.0329 23.5923 50.5988 23.4805 51.0054 23.3201C51.0054 23.3201 51.0833 23.2825 51.0492 23.1921L50.785 22.4623ZM52.6683 20.0565C52.7193 19.71 52.8152 19.4216 52.9629 19.1969C53.1859 18.8557 53.5262 18.6686 54.0044 18.6686C54.4826 18.6686 54.7987 18.8566 55.0252 19.1969C55.1757 19.4216 55.2411 19.7226 55.2671 20.0565H52.6683ZM56.2923 19.2944C56.201 18.9496 55.9744 18.6013 55.8258 18.4419C55.5911 18.1894 55.362 18.013 55.1345 17.9145C54.8372 17.7873 54.4808 17.7032 54.0904 17.7032C53.6355 17.7032 53.2226 17.7793 52.8877 17.9369C52.552 18.0945 52.2699 18.3094 52.0487 18.5772C51.8274 18.844 51.6609 19.1619 51.5552 19.5228C51.4487 19.8819 51.395 20.2732 51.395 20.6859C51.395 21.106 51.4505 21.4973 51.5606 21.8492C51.6717 22.2038 51.849 22.5163 52.089 22.7751C52.328 23.0357 52.6361 23.2399 53.005 23.3822C53.3713 23.5237 53.8164 23.5971 54.3277 23.5962C55.3799 23.5926 55.9341 23.358 56.1625 23.2317C56.2028 23.2094 56.2413 23.17 56.1929 23.0572L55.9547 22.39C55.919 22.2906 55.8177 22.3273 55.8177 22.3273C55.5571 22.424 55.1865 22.5977 54.3222 22.596C53.7572 22.5951 53.3381 22.4285 53.0757 22.1679C52.8062 21.9011 52.6745 21.5088 52.6513 20.9554L56.295 20.959C56.295 20.959 56.3907 20.9573 56.4007 20.8641C56.4043 20.8248 56.5261 20.1156 56.2923 19.2944ZM23.4876 20.0565C23.5395 19.71 23.6345 19.4216 23.7822 19.1969C24.0052 18.8557 24.3455 18.6686 24.8237 18.6686C25.3018 18.6686 25.618 18.8566 25.8454 19.1969C25.9949 19.4216 26.0603 19.7226 26.0862 20.0565H23.4876ZM27.1107 19.2944C27.0194 18.9496 26.7937 18.6013 26.6451 18.4419C26.4104 18.1894 26.1812 18.013 25.9538 17.9145C25.6565 17.7873 25.3001 17.7032 24.9097 17.7032C24.4557 17.7032 24.0419 17.7793 23.707 17.9369C23.3713 18.0945 23.0892 18.3094 22.868 18.5772C22.6468 18.844 22.4802 19.1619 22.3746 19.5228C22.2689 19.8819 22.2143 20.2732 22.2143 20.6859C22.2143 21.106 22.2698 21.4973 22.38 21.8492C22.4911 22.2038 22.6684 22.5163 22.9083 22.7751C23.1474 23.0357 23.4555 23.2399 23.8244 23.3822C24.1907 23.5237 24.6357 23.5971 25.147 23.5962C26.1992 23.5926 26.7535 23.358 26.9819 23.2317C27.0222 23.2094 27.0606 23.17 27.0123 23.0572L26.775 22.39C26.7383 22.2906 26.6372 22.3273 26.6372 22.3273C26.3766 22.424 26.0067 22.5977 25.1408 22.596C24.5767 22.5951 24.1576 22.4285 23.8952 22.1679C23.6256 21.9011 23.494 21.5088 23.4707 20.9554L27.1144 20.959C27.1144 20.959 27.2102 20.9573 27.22 20.8641C27.2235 20.8248 27.3453 20.1156 27.1107 19.2944ZM15.6118 22.4423C15.4694 22.3285 15.4497 22.2999 15.4014 22.2265C15.3297 22.1145 15.293 21.9551 15.293 21.7528C15.293 21.4322 15.3987 21.2021 15.6181 21.0471C15.6155 21.0481 15.9315 20.774 16.6748 20.7839C17.1968 20.791 17.6633 20.868 17.6633 20.868V22.5247H17.6642C17.6642 22.5247 17.2013 22.624 16.6801 22.6554C15.9387 22.7002 15.6091 22.4414 15.6118 22.4423ZM17.0616 19.8821C16.9138 19.8714 16.7221 19.8651 16.4929 19.8651C16.1804 19.8651 15.8786 19.9045 15.5956 19.9806C15.3109 20.0567 15.0548 20.1759 14.8345 20.3334C14.6145 20.4904 14.4337 20.696 14.3062 20.9342C14.1772 21.1742 14.1119 21.4572 14.1119 21.7742C14.1119 22.0966 14.1674 22.3769 14.2784 22.6062C14.3895 22.8363 14.5498 23.0279 14.7539 23.1757C14.9563 23.3235 15.2061 23.4317 15.4962 23.4971C15.7819 23.5625 16.106 23.5956 16.4607 23.5956C16.8341 23.5956 17.2066 23.5652 17.5675 23.5034C17.9248 23.4424 18.3635 23.3538 18.4853 23.3261C18.5707 23.3055 18.6558 23.2837 18.7405 23.2607C18.831 23.2384 18.8238 23.1416 18.8238 23.1416L18.822 19.8096C18.822 19.0788 18.6268 18.537 18.2427 18.2013C17.8603 17.8664 17.297 17.697 16.569 17.697C16.2959 17.697 15.8562 17.7347 15.5929 17.7875C15.5929 17.7875 14.7969 17.9416 14.4691 18.1977C14.4691 18.1977 14.3975 18.2425 14.4369 18.3428L14.6948 19.0359C14.727 19.1255 14.8139 19.095 14.8139 19.095C14.8139 19.095 14.8417 19.0842 14.874 19.0654C15.5751 18.684 16.4616 18.6956 16.4616 18.6956C16.8557 18.6956 17.1583 18.7744 17.3625 18.9311C17.5612 19.0833 17.6624 19.3134 17.6624 19.7988V19.9528C17.349 19.9081 17.0616 19.8821 17.0616 19.8821ZM46.4495 18.0047C46.4772 17.9223 46.4191 17.8829 46.3948 17.8739C46.3331 17.8498 46.0233 17.7844 45.7842 17.7692C45.3266 17.7414 45.0723 17.8184 44.8448 17.9205C44.6192 18.0226 44.3685 18.1873 44.2287 18.3745V17.9313C44.2287 17.8695 44.1848 17.8202 44.1239 17.8202H43.1899C43.1291 17.8202 43.0852 17.8694 43.0852 17.9313V23.3659C43.0852 23.4268 43.1354 23.4769 43.1962 23.4769H44.1535C44.1828 23.4768 44.2109 23.465 44.2315 23.4442C44.2522 23.4233 44.2637 23.3952 44.2636 23.3659V20.6508C44.2636 20.2864 44.304 19.9228 44.3846 19.6945C44.4634 19.4688 44.5708 19.2879 44.7034 19.158C44.8368 19.0291 44.9881 18.9387 45.1538 18.8877C45.323 18.8357 45.5101 18.8187 45.6427 18.8187C45.8334 18.8187 46.043 18.8679 46.043 18.8679C46.1128 18.876 46.1522 18.833 46.1754 18.7694C46.2382 18.6029 46.4155 18.104 46.4495 18.0047Z" fill="white"/>
<path d="M37.4641 15.4864C37.3477 15.4506 37.2421 15.4263 37.1041 15.4004C36.9644 15.3754 36.7979 15.3628 36.609 15.3628C35.9498 15.3628 35.4304 15.5491 35.066 15.9162C34.7033 16.2816 34.4571 16.8376 34.3335 17.5693L34.2887 17.8155H33.4613C33.4613 17.8155 33.361 17.8119 33.3395 17.9212L33.2043 18.6797C33.1945 18.7513 33.2259 18.7969 33.3225 18.7969H34.1276L33.3109 23.3567C33.2473 23.7239 33.1738 24.0257 33.0923 24.2548C33.0126 24.4806 32.9348 24.6498 32.838 24.7733C32.7449 24.8916 32.6571 24.9793 32.5049 25.0303C32.3795 25.0724 32.2345 25.0921 32.076 25.0921C31.9882 25.0921 31.8709 25.0777 31.784 25.0598C31.6981 25.0428 31.6524 25.024 31.587 24.9962C31.587 24.9962 31.493 24.9605 31.4554 25.0545C31.4258 25.1324 31.2109 25.7225 31.1849 25.7951C31.1599 25.8676 31.1957 25.924 31.2413 25.941C31.3488 25.9786 31.4285 26.0037 31.5744 26.0386C31.7769 26.0861 31.9478 26.0887 32.1081 26.0887C32.443 26.0887 32.7493 26.0413 33.0027 25.95C33.2571 25.8577 33.4791 25.6974 33.6761 25.4808C33.8883 25.2461 34.0217 25.0008 34.149 24.665C34.2752 24.3336 34.3836 23.9217 34.4695 23.4418L35.2907 18.7969H36.4906C36.4906 18.7969 36.5917 18.8005 36.6124 18.6904L36.7485 17.9329C36.7575 17.8604 36.727 17.8156 36.6294 17.8156H35.4644C35.4707 17.7896 35.5235 17.3794 35.6569 16.9936C35.7142 16.8297 35.8217 16.6962 35.9121 16.6049C36.0017 16.5153 36.1047 16.4518 36.2176 16.415C36.3331 16.3774 36.4648 16.3595 36.6089 16.3595C36.7182 16.3595 36.8264 16.3721 36.9079 16.389C37.0208 16.4133 37.0646 16.4258 37.0943 16.4348C37.2134 16.4706 37.2294 16.4357 37.2528 16.3784L37.5313 15.6137C37.5599 15.5311 37.4892 15.4962 37.4641 15.4864ZM21.1866 23.3666C21.1866 23.4275 21.1427 23.4768 21.0818 23.4768H20.1156C20.0547 23.4768 20.0117 23.4275 20.0117 23.3666V15.5903C20.0117 15.5294 20.0547 15.4801 20.1156 15.4801H21.0818C21.1427 15.4801 21.1866 15.5294 21.1866 15.5903V23.3666Z" fill="white"/>
</svg>
