<svg width="49" height="44" viewBox="0 0 49 44" fill="none" xmlns="http://www.w3.org/2000/svg">
<path d="M11 8.8C11 7.63305 11.4636 6.51389 12.2887 5.68873C13.1139 4.86357 14.233 4.4 15.4 4.4C15.9835 4.4 16.5431 4.16822 16.9556 3.75564C17.3682 3.34306 17.6 2.78348 17.6 2.2C17.6 1.61652 17.3682 1.05694 16.9556 0.644365C16.5431 0.231785 15.9835 0 15.4 0C13.0661 0 10.8278 0.92714 9.17746 2.57746C7.52714 4.22778 6.6 6.46609 6.6 8.8V15.4C6.6 16.567 6.13643 17.6861 5.31127 18.5113C4.48611 19.3364 3.36695 19.8 2.2 19.8C1.61652 19.8 1.05694 20.0318 0.644365 20.4444C0.231785 20.8569 0 21.4165 0 22C0 22.5835 0.231785 23.1431 0.644365 23.5556C1.05694 23.9682 1.61652 24.2 2.2 24.2C3.36695 24.2 4.48611 24.6636 5.31127 25.4887C6.13643 26.3139 6.6 27.433 6.6 28.6V35.2C6.6 37.5339 7.52714 39.7722 9.17746 41.4225C10.8278 43.0729 13.0661 44 15.4 44C15.9835 44 16.5431 43.7682 16.9556 43.3556C17.3682 42.9431 17.6 42.3835 17.6 41.8C17.6 41.2165 17.3682 40.6569 16.9556 40.2444C16.5431 39.8318 15.9835 39.6 15.4 39.6C14.233 39.6 13.1139 39.1364 12.2887 38.3113C11.4636 37.4861 11 36.367 11 35.2V28.6C10.9929 27.3472 10.7184 26.1103 10.1949 24.9721C9.67128 23.8339 8.91071 22.8206 7.964 22C8.91071 21.1794 9.67128 20.1661 10.1949 19.0279C10.7184 17.8897 10.9929 16.6528 11 15.4V8.8ZM46.2 19.8C45.033 19.8 43.9139 19.3364 43.0887 18.5113C42.2636 17.6861 41.8 16.567 41.8 15.4V8.8C41.8 6.46609 40.8729 4.22778 39.2225 2.57746C37.5722 0.92714 35.3339 0 33 0C32.4165 0 31.8569 0.231785 31.4444 0.644365C31.0318 1.05694 30.8 1.61652 30.8 2.2C30.8 2.78348 31.0318 3.34306 31.4444 3.75564C31.8569 4.16822 32.4165 4.4 33 4.4C34.167 4.4 35.2861 4.86357 36.1113 5.68873C36.9364 6.51389 37.4 7.63305 37.4 8.8V15.4C37.4071 16.6528 37.6816 17.8897 38.2051 19.0279C38.7287 20.1661 39.4893 21.1794 40.436 22C39.4893 22.8206 38.7287 23.8339 38.2051 24.9721C37.6816 26.1103 37.4071 27.3472 37.4 28.6V35.2C37.4 36.367 36.9364 37.4861 36.1113 38.3113C35.2861 39.1364 34.167 39.6 33 39.6C32.4165 39.6 31.8569 39.8318 31.4444 40.2444C31.0318 40.6569 30.8 41.2165 30.8 41.8C30.8 42.3835 31.0318 42.9431 31.4444 43.3556C31.8569 43.7682 32.4165 44 33 44C35.3339 44 37.5722 43.0729 39.2225 41.4225C40.8729 39.7722 41.8 37.5339 41.8 35.2V28.6C41.8 27.433 42.2636 26.3139 43.0887 25.4887C43.9139 24.6636 45.033 24.2 46.2 24.2C46.7835 24.2 47.3431 23.9682 47.7556 23.5556C48.1682 23.1431 48.4 22.5835 48.4 22C48.4 21.4165 48.1682 20.8569 47.7556 20.4444C47.3431 20.0318 46.7835 19.8 46.2 19.8Z" fill="#2E4489"/>
</svg>
