<svg width="47" height="64" viewBox="0 0 47 64" fill="none" xmlns="http://www.w3.org/2000/svg">
<path d="M14.9796 48.886C14.9796 48.886 12.5821 50.2802 16.6859 50.7519C21.6577 51.3191 24.1985 51.2379 29.6774 50.2008C29.6774 50.2008 31.1179 51.104 33.1294 51.8864C20.8475 57.1502 5.33263 51.5814 14.9796 48.886M13.4788 42.0168C13.4788 42.0168 10.7897 44.0074 14.8966 44.4321C20.2075 44.98 24.4016 45.0249 31.6591 43.6274C31.6591 43.6274 32.6629 44.645 34.2413 45.2016C19.3915 49.5439 2.85157 45.5441 13.4788 42.0168" fill="#5382A1"/>
<path d="M26.1313 30.3647C29.1576 33.8489 25.3362 36.9843 25.3362 36.9843C25.3362 36.9843 33.0204 33.0175 29.4913 28.0499C26.1954 23.4177 23.6676 21.1157 37.3512 13.1799C37.3512 13.1799 15.8726 18.5442 26.1313 30.3646" fill="#E76F00"/>
<path d="M42.3752 53.9668C42.3752 53.9668 44.1494 55.4286 40.4211 56.5596C33.3318 58.7073 10.9144 59.3558 4.68688 56.6451C2.44834 55.6714 6.64641 54.3199 7.96686 54.0362C9.344 53.7375 10.1311 53.7933 10.1311 53.7933C7.64152 52.0394 -5.96051 57.237 3.22201 58.7253C28.2638 62.7864 48.8707 56.8967 42.3752 53.9668ZM16.1325 34.8998C16.1325 34.8998 4.72976 37.6083 12.0946 38.5916C15.2042 39.008 21.4032 38.9139 27.1775 38.4299C31.8966 38.0321 36.6351 37.1856 36.6351 37.1856C36.6351 37.1856 34.9711 37.8982 33.7673 38.7202C22.1878 41.7657 -0.181674 40.349 6.25821 37.2337C11.7044 34.6012 16.1327 34.8998 16.1327 34.8998M36.588 46.3336C48.3593 40.2169 42.9167 34.3389 39.1179 35.1309C38.1868 35.3245 37.7717 35.4924 37.7717 35.4924C37.7717 35.4924 38.1174 34.9511 38.7775 34.7167C46.2926 32.0745 52.0724 42.5092 36.3515 46.6419C36.3515 46.6421 36.5337 46.4793 36.588 46.3336" fill="#5382A1"/>
<path d="M29.4913 0.365416C29.4913 0.365416 36.0104 6.88686 23.3083 16.9144C13.1227 24.9585 20.9856 29.545 23.3041 34.7852C17.3585 29.4209 12.9951 24.6986 15.9225 20.3036C20.2189 13.8517 32.1215 10.7238 29.4913 0.365234" fill="#E76F00"/>
<path d="M17.289 62.9085C28.5878 63.6318 45.9383 62.5072 46.3492 57.1609C46.3492 57.1609 45.5594 59.1878 37.0114 60.7973C27.3676 62.612 15.4735 62.4002 8.41895 61.2371C8.41913 61.2371 9.86311 62.4324 17.2892 62.9085" fill="#5382A1"/>
</svg>
