<svg width="51" height="50" viewBox="0 0 51 50" fill="none" xmlns="http://www.w3.org/2000/svg">
<path d="M24.9494 0C12.1903 0 12.9855 5.53305 12.9855 5.53305L12.9994 11.2655H25.1771V12.9868H8.16615C8.16615 12.9868 0 12.0611 0 24.935C0 37.8088 7.12659 37.3534 7.12659 37.3534H11.3798V31.3793C11.3798 31.3793 11.1507 24.2527 18.3925 24.2527H30.4685C30.4685 24.2527 37.2535 24.3625 37.2535 17.6954V6.67297C37.2535 6.67297 38.2841 0 24.9494 0ZM18.2355 3.85491C18.7417 3.8554 19.2321 4.03137 19.6231 4.35286C20.0142 4.67434 20.2817 5.12145 20.3801 5.61803C20.4785 6.11461 20.4017 6.62994 20.1628 7.07625C19.9238 7.52255 19.5376 7.87223 19.0698 8.06571C18.602 8.25918 18.0816 8.2845 17.5972 8.13735C17.1128 7.99019 16.6944 7.67966 16.4133 7.25866C16.1322 6.83765 16.0057 6.33221 16.0555 5.82842C16.1052 5.32464 16.328 4.85367 16.686 4.49575C16.8895 4.29232 17.1311 4.13102 17.3969 4.02105C17.6628 3.91109 17.9477 3.85463 18.2355 3.85491Z" fill="url(#paint0_linear_69_186)"/>
<path d="M25.3118 49.9997C38.0713 49.9997 37.2748 44.4644 37.2748 44.4644L37.2608 38.732H25.0845V37.0129H42.0954C42.0954 37.0129 50.2602 37.939 50.2602 25.0643C50.2602 12.1895 43.1336 12.6463 43.1336 12.6463H38.8818V18.6204C38.8818 18.6204 39.1109 25.747 31.8691 25.747H19.7926C19.7926 25.747 13.0076 25.6372 13.0076 32.3047V43.3303C13.0076 43.3303 11.9793 49.9997 25.3118 49.9997ZM32.0257 46.1452C31.5193 46.1449 31.0288 45.969 30.6375 45.6476C30.2463 45.3261 29.9786 44.879 29.8801 44.3823C29.7815 43.8857 29.8582 43.3702 30.0971 42.9237C30.3359 42.4773 30.7222 42.1274 31.19 41.9338C31.6579 41.7401 32.1784 41.7147 32.6629 41.8618C33.1475 42.0088 33.566 42.3193 33.8473 42.7404C34.1285 43.1614 34.2551 43.6669 34.2055 44.1708C34.1559 44.6747 33.9331 45.1459 33.5751 45.5039C33.3717 45.7074 33.1301 45.8688 32.8642 45.9789C32.5984 46.0889 32.3134 46.1454 32.0257 46.1452Z" fill="url(#paint1_linear_69_186)"/>
<defs>
<linearGradient id="paint0_linear_69_186" x1="4.84536" y1="4.48265" x2="29.7236" y2="29.1563" gradientUnits="userSpaceOnUse">
<stop stop-color="#387EB8"/>
<stop offset="1" stop-color="#366994"/>
</linearGradient>
<linearGradient id="paint1_linear_69_186" x1="20.108" y1="20.3395" x2="46.8511" y2="45.606" gradientUnits="userSpaceOnUse">
<stop stop-color="#FFE052"/>
<stop offset="1" stop-color="#FFC331"/>
</linearGradient>
</defs>
</svg>
