<svg width="62" height="37" viewBox="0 0 62 37" fill="none" xmlns="http://www.w3.org/2000/svg">
<path d="M17.4362 13.4383C17.4202 14.0566 17.4965 14.6739 17.6625 15.2698C17.8454 15.7793 18.0655 16.2747 18.3212 16.7519C18.4128 16.893 18.4627 17.0571 18.4653 17.2252C18.4653 17.431 18.3418 17.6369 18.0743 17.8426L16.7779 18.7069C16.6215 18.8195 16.4355 18.8839 16.243 18.892C16.0086 18.8759 15.7886 18.7733 15.6256 18.604C15.3483 18.306 15.1001 17.9822 14.8846 17.6368C14.6789 17.287 14.4729 16.8958 14.2467 16.4227C12.6416 18.3155 10.6249 19.262 8.19654 19.262C6.46739 19.262 5.08925 18.768 4.08093 17.7799C3.07262 16.7918 2.55811 15.4755 2.55811 13.8293C2.55811 12.0801 3.17542 10.6602 4.43076 9.59017C5.6861 8.5201 7.35279 7.98501 9.47235 7.98501C10.2023 7.99097 10.9311 8.04599 11.6537 8.14969C12.4151 8.25261 13.1971 8.41718 14.0201 8.60244V7.1002C14.0201 5.53573 13.6908 4.44566 13.053 3.80764C12.3943 3.16974 11.2832 2.86108 9.69867 2.86108C8.94981 2.86105 8.20365 2.95085 7.47618 3.12857C6.7197 3.30879 5.977 3.5426 5.2537 3.82823C5.01968 3.93293 4.77909 4.02228 4.53345 4.09572C4.4269 4.13085 4.31613 4.15162 4.20409 4.15747C3.91602 4.15747 3.77192 3.95174 3.77192 3.51957V2.51125C3.77192 2.18189 3.81309 1.93487 3.91602 1.79101C4.0713 1.60343 4.26882 1.45533 4.4924 1.35884C5.31777 0.950455 6.18795 0.639699 7.0853 0.432862C8.13388 0.163805 9.21301 0.032368 10.2955 0.0418628C12.7448 0.0418628 14.5346 0.597425 15.687 1.70867C16.8189 2.81991 17.395 4.5073 17.395 6.77095V13.4383H17.4362ZM9.08147 16.5662C9.80338 16.5582 10.5192 16.4331 11.201 16.1958C11.9563 15.9345 12.6302 15.4803 13.1559 14.8783C13.4876 14.499 13.7271 14.0481 13.8556 13.5609C13.9969 12.9747 14.066 12.3735 14.0613 11.7705V10.9071C13.4374 10.7553 12.8054 10.6385 12.1684 10.5573C11.5267 10.476 10.8806 10.435 10.2338 10.4344C8.85503 10.4344 7.84671 10.7019 7.16764 11.2578C6.48857 11.8137 6.15932 12.5954 6.15932 13.6243C6.15932 14.5914 6.40634 15.3117 6.92074 15.8056C7.41478 16.3201 8.1349 16.567 9.08147 16.567V16.5662ZM25.6058 18.7887C25.2354 18.7887 24.9885 18.7269 24.8238 18.5829C24.6591 18.4594 24.5151 18.1712 24.3916 17.7803L19.5555 1.87335C19.4618 1.60708 19.3996 1.33072 19.3704 1.04994C19.3704 0.720583 19.5351 0.535435 19.8644 0.535435H21.881C22.272 0.535435 22.5398 0.59719 22.6836 0.741168C22.8483 0.864679 22.9717 1.15287 23.0953 1.54375L26.5525 15.1665L29.7626 1.5441C29.8655 1.1324 29.9889 0.865031 30.1536 0.741521C30.3182 0.61801 30.6063 0.535787 30.977 0.535787H32.6238C33.0148 0.535787 33.2825 0.597543 33.4472 0.741521C33.6119 0.865031 33.7558 1.15322 33.8382 1.5441L37.0896 15.3315L40.6484 1.5441C40.7719 1.1324 40.9159 0.865031 41.0601 0.741521C41.2248 0.61801 41.4923 0.535787 41.8627 0.535787H43.7765C44.1059 0.535787 44.2911 0.700468 44.2911 1.0503C44.2862 1.16102 44.2725 1.27116 44.2499 1.37966C44.2176 1.5552 44.1694 1.72742 44.1058 1.89417L39.1464 17.8012C39.023 18.2127 38.8789 18.4802 38.7143 18.6037C38.4816 18.7527 38.208 18.8246 37.9323 18.8095H36.1624C35.7714 18.8095 35.5037 18.7477 35.339 18.6037C35.1743 18.4598 35.0303 18.192 34.948 17.7803L31.7586 4.5073L28.5894 17.7598C28.4865 18.1715 28.3631 18.4388 28.1984 18.5832C28.0338 18.7275 27.7457 18.7889 27.375 18.7889L25.6058 18.7887ZM52.0488 19.3442C50.9816 19.3454 49.918 19.221 48.8798 18.9738C47.8509 18.7268 47.0483 18.4593 46.5133 18.1504C46.1839 17.9653 45.9577 17.7594 45.8754 17.574C45.7953 17.3923 45.7532 17.1962 45.7519 16.9976V15.9489C45.7519 15.5167 45.9166 15.3109 46.2252 15.3109C46.3512 15.3114 46.4763 15.3322 46.5956 15.3727C46.7192 15.4139 46.9043 15.4962 47.1102 15.5784C47.837 15.8981 48.5958 16.1396 49.3738 16.2987C50.1798 16.4623 51.0002 16.5451 51.8226 16.5457C53.119 16.5457 54.1274 16.3194 54.8271 15.8666C55.1623 15.6644 55.4379 15.3769 55.626 15.0336C55.814 14.6902 55.9077 14.3031 55.8975 13.9117C55.9048 13.6468 55.8594 13.3831 55.764 13.1359C55.6687 12.8886 55.5252 12.6627 55.342 12.4713C54.9715 12.0803 54.2715 11.7302 53.2636 11.4008L50.2791 10.475C48.7768 10.0018 47.6656 9.3021 46.9866 8.37589C46.3241 7.52186 45.9624 6.47284 45.9577 5.39199C45.941 4.59521 46.1325 3.80785 46.5133 3.10775C46.8809 2.44571 47.3863 1.87028 47.9954 1.42036C48.6368 0.934798 49.3624 0.5719 50.1356 0.349933C50.978 0.107464 51.8514 -0.0102007 52.7279 0.000692558C53.1888 -0.00264872 53.6494 0.0248595 54.1066 0.083033C54.58 0.144788 55.0124 0.227129 55.4442 0.309351C55.8559 0.412277 56.2468 0.515085 56.6172 0.638713C56.9175 0.731598 57.2072 0.85575 57.4815 1.00913C57.7238 1.13132 57.935 1.30731 58.0988 1.52364C58.2327 1.72389 58.2976 1.96225 58.284 2.20271V3.16986C58.284 3.60203 58.1193 3.82858 57.8106 3.82858C57.646 3.82858 57.3785 3.74624 57.0286 3.58156C55.8556 3.0465 54.5386 2.77898 53.0776 2.77898C51.9046 2.77898 50.9786 2.96412 50.3407 3.35536C49.7028 3.74659 49.3736 4.34344 49.3736 5.18684C49.3679 5.4601 49.42 5.73147 49.5264 5.98323C49.6327 6.23499 49.791 6.46148 49.9909 6.64791C50.4026 7.03891 51.1639 7.42991 52.2545 7.77974L55.1767 8.70525C56.6588 9.17859 57.7284 9.83708 58.3663 10.6807C58.9945 11.5085 59.3277 12.5226 59.3129 13.5617C59.3235 14.3882 59.1403 15.2058 58.7779 15.9487C58.4128 16.6531 57.9004 17.2707 57.2757 17.7596C56.5963 18.2885 55.8204 18.68 54.9914 18.9124C54.0383 19.2056 53.0459 19.3513 52.0487 19.3446L52.0488 19.3442Z" fill="#252F3E"/>
<path d="M55.9381 29.3451C49.1678 34.3457 39.3315 37.0002 30.8738 37.0002C19.0207 37.0007 8.34052 32.6175 0.2741 25.3328C-0.363803 24.7564 0.212344 23.9747 0.973758 24.4271C9.6989 29.4894 20.4614 32.5552 31.5942 32.5552C39.1053 32.5552 47.3571 30.9908 54.9505 27.781C56.0823 27.2665 57.0495 28.5221 55.9386 29.3455L55.9381 29.3451Z" fill="#FF9900"/>
<path d="M58.7575 26.1353C57.8932 25.0241 53.0367 25.6003 50.8348 25.8678C50.1761 25.9502 50.0734 25.3738 50.6701 24.9418C54.5388 22.2256 60.8975 23.0074 61.6384 23.9129C62.3794 24.8389 61.4326 31.1976 57.8108 34.2433C57.2553 34.7166 56.7202 34.4696 56.9671 33.8523C57.7904 31.8149 59.6218 27.226 58.7575 26.1353Z" fill="#FF9900"/>
</svg>
