<svg width="56" height="56" viewBox="0 0 56 56" fill="none" xmlns="http://www.w3.org/2000/svg">
<path d="M42.7558 0H12.3742C5.54011 0 0 5.54011 0 12.3742V42.7558C0 49.5899 5.54011 55.13 12.3742 55.13H42.7558C49.5899 55.13 55.13 49.5899 55.13 42.7558V12.3742C55.13 5.54011 49.5899 0 42.7558 0Z" fill="#FD3832"/>
<path d="M24.9391 12.4315H23.2204L22.0556 16.8809L20.8525 12.4315H19.0957L20.1842 15.5823C20.5985 16.73 20.9366 17.9038 21.1963 19.096V23.679H22.9149V19.096L24.9391 12.4315ZM29.4839 21.0056V18.0839C29.5225 17.4137 29.356 16.7476 29.0065 16.1743C28.7938 15.9042 28.5227 15.6859 28.2134 15.5357C27.9041 15.3856 27.5648 15.3076 27.221 15.3076C26.8772 15.3076 26.5379 15.3856 26.2287 15.5357C25.9194 15.6859 25.6482 15.9042 25.4356 16.1743C25.0849 16.7471 24.9183 17.4136 24.9582 18.0839V21.0056C24.9171 21.6761 25.0838 22.3429 25.4356 22.9152C25.6482 23.1853 25.9194 23.4037 26.2287 23.5538C26.5379 23.7039 26.8772 23.7819 27.221 23.7819C27.5648 23.7819 27.9041 23.7039 28.2134 23.5538C28.5227 23.4037 28.7938 23.1853 29.0065 22.9152C29.356 22.342 29.5225 21.6759 29.4839 21.0056ZM27.9562 21.292C27.9562 22.075 27.7271 22.4569 27.2306 22.4569C26.7341 22.4569 26.5049 22.075 26.5049 21.292V17.7784C26.5049 16.9955 26.7341 16.6135 27.2306 16.6135C27.7271 16.6135 27.9562 16.9955 27.9562 17.7784V21.292ZM35.1554 23.7363V15.2768H33.6277V21.7312C33.284 22.2086 32.9594 22.4569 32.6538 22.4569C32.3483 22.4569 32.3292 22.3423 32.291 22.0941C32.2746 21.8971 32.2746 21.6991 32.291 21.5021V15.2768H30.7633V21.9604C30.7451 22.3848 30.7901 22.8096 30.897 23.2207C30.9655 23.4235 31.1014 23.5966 31.2821 23.7113C31.4628 23.826 31.6774 23.8753 31.89 23.8509C32.2252 23.8206 32.5506 23.722 32.8462 23.561C33.1418 23.4001 33.4013 23.1803 33.6086 22.9152V23.8318L35.1554 23.7363ZM30.3432 32.2913C30.1981 32.2978 30.0558 32.3332 29.9246 32.3955C29.7934 32.4578 29.6761 32.5457 29.5794 32.6541V37.7527C29.6753 37.862 29.7926 37.9505 29.9239 38.0129C30.0552 38.0752 30.1979 38.1102 30.3432 38.1156C30.7824 38.1156 30.9925 37.7527 30.9925 36.9889V33.418C30.9925 32.6732 30.7824 32.2913 30.3432 32.2913ZM35.9574 32.2913C35.4418 32.2913 35.1936 32.6732 35.1936 33.4562V34.22H36.7022V33.4562C36.7213 32.6732 36.4539 32.2913 35.9574 32.2913Z" fill="white"/>
<path d="M39.6616 28.0329C39.5228 27.3909 39.1868 26.8083 38.7006 26.3667C38.2144 25.925 37.6024 25.6463 36.95 25.5696C33.8335 25.2805 30.7032 25.1657 27.5739 25.2258C24.4446 25.1657 21.3143 25.2805 18.1978 25.5696C17.542 25.6425 16.9257 25.9196 16.4357 26.3615C15.9458 26.8035 15.607 27.3881 15.4671 28.0329C15.1025 29.9839 14.9552 31.9693 15.0279 33.9527C14.955 35.9361 15.1023 37.9215 15.4671 39.8724C15.6085 40.5132 15.9453 41.0943 16.431 41.5355C16.9167 41.9767 17.5273 42.2564 18.1787 42.3358C21.3016 42.6248 24.4382 42.7396 27.5739 42.6795C30.7032 42.7388 33.8334 42.6241 36.95 42.3358C37.6014 42.2564 38.212 41.9767 38.6977 41.5355C39.1834 41.0943 39.5202 40.5132 39.6616 39.8724C40.0262 37.9215 40.1735 35.9361 40.1008 33.9527C40.1735 31.9693 40.0262 29.9839 39.6616 28.0329ZM22.1888 29.7325H20.2792V39.2805H18.6752V29.7325H16.8993V28.1475H22.1888V29.7325ZM26.7719 39.2805H25.2633V38.3639C25.0648 38.6506 24.8068 38.8911 24.5069 39.069C24.207 39.247 23.8723 39.3582 23.5256 39.395C23.316 39.4148 23.1059 39.3634 22.9292 39.2491C22.7525 39.1347 22.6195 38.9641 22.5517 38.7649C22.4458 38.36 22.4008 37.9417 22.418 37.5236V31.031H23.9266V37.1799C23.9131 37.377 23.9131 37.5748 23.9266 37.7719C23.9266 38.001 24.0793 38.1347 24.2894 38.1347C24.4994 38.1347 24.9196 37.9056 25.2442 37.4282V31.031H26.7337L26.7719 39.2805ZM32.5007 36.7789C32.5207 37.3432 32.4694 37.9079 32.3479 38.4593C32.2862 38.7302 32.1327 38.9714 31.9134 39.142C31.6941 39.3126 31.4226 39.402 31.1448 39.395C30.8312 39.3717 30.5271 39.277 30.2557 39.1182C29.9843 38.9593 29.7528 38.7405 29.579 38.4784V39.2805H28.0704V28.1666H29.579V31.833C29.7538 31.5735 29.9859 31.3576 30.2574 31.202C30.5289 31.0464 30.8325 30.9552 31.1448 30.9355C31.4226 30.9286 31.6941 31.018 31.9134 31.1886C32.1327 31.3591 32.2862 31.6003 32.3479 31.8712C32.4717 32.4224 32.523 32.9873 32.5007 33.5517V36.7789ZM38.2294 35.3849H35.2123V36.8744C35.2123 37.6573 35.4605 38.0392 35.9761 38.0392C36.1452 38.0445 36.3096 37.9836 36.4344 37.8695C36.5592 37.7553 36.6346 37.597 36.6445 37.4282C36.6634 37.0847 36.6634 36.7404 36.6445 36.397H38.1912V37.6C38.1491 37.928 38.0314 38.2418 37.8475 38.5166C37.6367 38.8214 37.349 39.0649 37.0136 39.2225C36.6782 39.3802 36.3071 39.4463 35.9379 39.4141C35.573 39.443 35.2068 39.3794 34.873 39.2292C34.5392 39.079 34.2487 38.847 34.0283 38.5548C33.6754 37.983 33.5086 37.3158 33.5509 36.6452V33.7426C33.5086 33.072 33.6754 32.4048 34.0283 31.833C34.2475 31.5395 34.5378 31.3066 34.8719 31.1562C35.206 31.0059 35.5728 30.9431 35.9379 30.9737C36.2848 30.9574 36.6304 31.0274 36.9437 31.1773C37.2569 31.3273 37.5281 31.5526 37.7329 31.833C38.0824 32.4063 38.2489 33.0724 38.2103 33.7426L38.2294 35.3849Z" fill="white"/>
</svg>
