<svg width="22" height="22" viewBox="0 0 22 22" fill="none" xmlns="http://www.w3.org/2000/svg">
<path d="M20.6617 19.005L16.695 15.05C17.9748 13.4195 18.6692 11.4061 18.6667 9.33334C18.6667 7.48738 18.1193 5.68287 17.0937 4.14802C16.0682 2.61316 14.6105 1.41688 12.905 0.710462C11.1996 0.00404396 9.32298 -0.180787 7.51249 0.179342C5.70201 0.53947 4.03896 1.42838 2.73367 2.73367C1.42838 4.03896 0.53947 5.70201 0.179342 7.51249C-0.180787 9.32298 0.00404396 11.1996 0.710462 12.905C1.41688 14.6105 2.61316 16.0682 4.14802 17.0937C5.68287 18.1193 7.48738 18.6667 9.33334 18.6667C11.4061 18.6692 13.4195 17.9748 15.05 16.695L19.005 20.6617C19.1135 20.771 19.2425 20.8578 19.3847 20.917C19.5268 20.9763 19.6793 21.0068 19.8333 21.0068C19.9874 21.0068 20.1398 20.9763 20.282 20.917C20.4242 20.8578 20.5532 20.771 20.6617 20.6617C20.771 20.5532 20.8578 20.4242 20.917 20.282C20.9763 20.1398 21.0068 19.9874 21.0068 19.8333C21.0068 19.6793 20.9763 19.5268 20.917 19.3847C20.8578 19.2425 20.771 19.1135 20.6617 19.005ZM2.33334 9.33334C2.33334 7.94887 2.74388 6.59549 3.51305 5.44435C4.28222 4.2932 5.37547 3.39599 6.65455 2.86618C7.93364 2.33637 9.3411 2.19774 10.699 2.46784C12.0568 2.73794 13.3041 3.40462 14.2831 4.38359C15.2621 5.36256 15.9287 6.60984 16.1988 7.96771C16.4689 9.32557 16.3303 10.733 15.8005 12.0121C15.2707 13.2912 14.3735 14.3845 13.2223 15.1536C12.0712 15.9228 10.7178 16.3333 9.33334 16.3333C7.47682 16.3333 5.69634 15.5958 4.38359 14.2831C3.07084 12.9703 2.33334 11.1899 2.33334 9.33334Z" fill="#40404E"/>
</svg>
