<svg width="28" height="28" viewBox="0 0 28 28" fill="none" xmlns="http://www.w3.org/2000/svg">
<path d="M25.2567 19.0941L21.2976 18.6421C20.8321 18.5874 20.3602 18.6389 19.9174 18.7928C19.4747 18.9467 19.0726 19.1989 18.7413 19.5305L15.8733 22.3985C11.4484 20.1481 7.85188 16.5516 5.60146 12.1267L8.48506 9.2431C9.1553 8.57286 9.48263 7.63764 9.37352 6.68683L8.9215 2.7589C8.83313 1.99853 8.46822 1.29721 7.89624 0.788467C7.32426 0.279724 6.58517 -0.000907562 5.81968 2.20508e-06H3.12313C1.3618 2.20508e-06 -0.103383 1.46518 0.00572585 3.22651C0.831837 16.5378 11.4778 27.1682 24.7735 27.9943C26.5348 28.1034 28 26.6382 28 24.8769V22.1803C28.0156 20.606 26.831 19.2811 25.2567 19.0941Z" fill="#0788A7"/>
</svg>
