<svg width="34" height="34" viewBox="0 0 34 34" fill="none" xmlns="http://www.w3.org/2000/svg">
<path d="M17.0043 0H16.9958C7.62239 0 2.2306e-05 7.62449 2.2306e-05 17C-0.00579828 20.5806 1.12765 24.0703 3.2364 26.9641L1.11777 33.2796L7.65214 31.1907C10.4239 33.0296 13.6779 34.0071 17.0043 34C26.3776 34 34 26.3733 34 17C34 7.62662 26.3776 0 17.0043 0Z" fill="#068D0B"/>
<path d="M26.6425 24.4532C26.2351 25.6272 24.6181 26.6008 23.3283 26.8852C22.4459 27.0769 21.2933 27.2298 17.4134 25.5884C12.4505 23.4903 9.25451 18.3441 9.00542 18.0102C8.76688 17.6763 7 15.2852 7 12.8123C7 10.3394 8.23069 9.13522 8.72677 8.61823C9.13418 8.19387 9.80758 8 10.4535 8C10.6625 8 10.8504 8.01077 11.0193 8.01939C11.5154 8.04093 11.7644 8.07109 12.0916 8.87027C12.4991 9.87193 13.4912 12.3449 13.6094 12.599C13.7298 12.8532 13.8501 13.1979 13.6812 13.5318C13.5229 13.8764 13.3836 14.0294 13.1345 14.3223C12.8854 14.6153 12.6489 14.8393 12.3998 15.1538C12.1719 15.4274 11.9143 15.7204 12.2014 16.2266C12.4885 16.722 13.4807 18.3742 14.9414 19.7012C16.8265 21.4137 18.3549 21.9609 18.9016 22.1935C19.309 22.3658 19.7945 22.3249 20.0922 22.0018C20.4701 21.586 20.9366 20.8967 21.4115 20.2182C21.7493 19.7313 22.1757 19.671 22.6232 19.8434C23.0792 20.0049 25.492 21.222 25.9881 21.474C26.4842 21.7282 26.8114 21.8488 26.9317 22.0621C27.0499 22.2754 27.0499 23.277 26.6425 24.4532Z" fill="#FAFAFA"/>
</svg>
